<mxfile host="app.diagrams.net" modified="2023-03-09T03:49:16.368Z" agent="5.0 (Macintosh; Intel Mac OS X 10_15_7) AppleWebKit/605.1.15 (KHTML, like Gecko) Version/15.3 Safari/605.1.15" etag="jHtHj6SCwL2AyovHmivl" version="21.0.2" type="github">
  <diagram name="第 1 页" id="3pHl03Gl7KUIALnaz5sz">
    <mxGraphModel dx="1848" dy="697" grid="1" gridSize="10" guides="1" tooltips="1" connect="1" arrows="1" fold="1" page="1" pageScale="1" pageWidth="827" pageHeight="1169" math="0" shadow="0">
      <root>
        <mxCell id="0" />
        <mxCell id="1" parent="0" />
        <mxCell id="aoOViALbAzrnRGuM8VXM-10" value="" style="rounded=0;whiteSpace=wrap;html=1;hachureGap=4;fontFamily=Architects Daughter;fontSource=https%3A%2F%2Ffonts.googleapis.com%2Fcss%3Ffamily%3DArchitects%2BDaughter;fontSize=20;dashed=1;" vertex="1" parent="1">
          <mxGeometry x="290" y="70" width="480" height="360" as="geometry" />
        </mxCell>
        <mxCell id="aoOViALbAzrnRGuM8VXM-4" value="Master active" style="rounded=0;whiteSpace=wrap;html=1;hachureGap=4;fontFamily=Architects Daughter;fontSource=https%3A%2F%2Ffonts.googleapis.com%2Fcss%3Ffamily%3DArchitects%2BDaughter;fontSize=20;fillColor=#dae8fc;strokeColor=#6c8ebf;" vertex="1" parent="1">
          <mxGeometry x="414" y="120" width="120" height="60" as="geometry" />
        </mxCell>
        <mxCell id="aoOViALbAzrnRGuM8VXM-5" value="Master standby" style="rounded=0;whiteSpace=wrap;html=1;hachureGap=4;fontFamily=Architects Daughter;fontSource=https%3A%2F%2Ffonts.googleapis.com%2Fcss%3Ffamily%3DArchitects%2BDaughter;fontSize=20;fillColor=#f5f5f5;fontColor=#333333;strokeColor=#666666;" vertex="1" parent="1">
          <mxGeometry x="600" y="120" width="120" height="60" as="geometry" />
        </mxCell>
        <mxCell id="aoOViALbAzrnRGuM8VXM-6" value="work" style="rounded=0;whiteSpace=wrap;html=1;hachureGap=4;fontFamily=Architects Daughter;fontSource=https%3A%2F%2Ffonts.googleapis.com%2Fcss%3Ffamily%3DArchitects%2BDaughter;fontSize=20;fillColor=#ffe6cc;strokeColor=#d79b00;" vertex="1" parent="1">
          <mxGeometry x="310" y="220" width="120" height="60" as="geometry" />
        </mxCell>
        <mxCell id="aoOViALbAzrnRGuM8VXM-7" value="work" style="rounded=0;whiteSpace=wrap;html=1;hachureGap=4;fontFamily=Architects Daughter;fontSource=https%3A%2F%2Ffonts.googleapis.com%2Fcss%3Ffamily%3DArchitects%2BDaughter;fontSize=20;fillColor=#ffe6cc;strokeColor=#d79b00;" vertex="1" parent="1">
          <mxGeometry x="460" y="220" width="120" height="60" as="geometry" />
        </mxCell>
        <mxCell id="aoOViALbAzrnRGuM8VXM-8" value="work" style="rounded=0;whiteSpace=wrap;html=1;hachureGap=4;fontFamily=Architects Daughter;fontSource=https%3A%2F%2Ffonts.googleapis.com%2Fcss%3Ffamily%3DArchitects%2BDaughter;fontSize=20;fillColor=#ffe6cc;strokeColor=#d79b00;" vertex="1" parent="1">
          <mxGeometry x="620" y="220" width="120" height="60" as="geometry" />
        </mxCell>
        <mxCell id="aoOViALbAzrnRGuM8VXM-25" style="edgeStyle=orthogonalEdgeStyle;rounded=0;sketch=1;hachureGap=4;jiggle=2;curveFitting=1;orthogonalLoop=1;jettySize=auto;html=1;entryX=0;entryY=0.5;entryDx=0;entryDy=0;fontFamily=Architects Daughter;fontSource=https%3A%2F%2Ffonts.googleapis.com%2Fcss%3Ffamily%3DArchitects%2BDaughter;fontSize=16;" edge="1" parent="1" source="aoOViALbAzrnRGuM8VXM-9" target="aoOViALbAzrnRGuM8VXM-4">
          <mxGeometry relative="1" as="geometry" />
        </mxCell>
        <mxCell id="aoOViALbAzrnRGuM8VXM-26" value="submit procedure" style="edgeLabel;html=1;align=center;verticalAlign=middle;resizable=0;points=[];fontSize=20;fontFamily=Architects Daughter;" vertex="1" connectable="0" parent="aoOViALbAzrnRGuM8VXM-25">
          <mxGeometry x="-0.4262" y="-4" relative="1" as="geometry">
            <mxPoint x="23" y="-24" as="offset" />
          </mxGeometry>
        </mxCell>
        <mxCell id="aoOViALbAzrnRGuM8VXM-9" value="HBase DR UI" style="rounded=0;whiteSpace=wrap;html=1;hachureGap=4;fontFamily=Architects Daughter;fontSource=https%3A%2F%2Ffonts.googleapis.com%2Fcss%3Ffamily%3DArchitects%2BDaughter;fontSize=20;" vertex="1" parent="1">
          <mxGeometry x="50" y="120" width="120" height="60" as="geometry" />
        </mxCell>
        <mxCell id="aoOViALbAzrnRGuM8VXM-15" value="" style="rounded=0;whiteSpace=wrap;html=1;hachureGap=4;fontFamily=Architects Daughter;fontSource=https%3A%2F%2Ffonts.googleapis.com%2Fcss%3Ffamily%3DArchitects%2BDaughter;fontSize=20;fillColor=#d5e8d4;strokeColor=#82b366;" vertex="1" parent="1">
          <mxGeometry x="320" y="320" width="420" height="100" as="geometry" />
        </mxCell>
        <mxCell id="aoOViALbAzrnRGuM8VXM-11" value="ZK" style="ellipse;shape=cloud;whiteSpace=wrap;html=1;sketch=1;hachureGap=4;jiggle=2;curveFitting=1;fontFamily=Architects Daughter;fontSource=https%3A%2F%2Ffonts.googleapis.com%2Fcss%3Ffamily%3DArchitects%2BDaughter;fontSize=20;" vertex="1" parent="1">
          <mxGeometry x="50" y="300" width="140" height="110" as="geometry" />
        </mxCell>
        <mxCell id="aoOViALbAzrnRGuM8VXM-12" value="HBase&lt;br&gt;Plugin" style="rounded=0;whiteSpace=wrap;html=1;hachureGap=4;fontFamily=Architects Daughter;fontSource=https%3A%2F%2Ffonts.googleapis.com%2Fcss%3Ffamily%3DArchitects%2BDaughter;fontSize=20;" vertex="1" parent="1">
          <mxGeometry x="360" y="351" width="90" height="60" as="geometry" />
        </mxCell>
        <mxCell id="aoOViALbAzrnRGuM8VXM-36" style="edgeStyle=orthogonalEdgeStyle;rounded=0;hachureGap=4;orthogonalLoop=1;jettySize=auto;html=1;fontFamily=Architects Daughter;fontSource=https%3A%2F%2Ffonts.googleapis.com%2Fcss%3Ffamily%3DArchitects%2BDaughter;fontSize=16;entryX=0.802;entryY=-0.038;entryDx=0;entryDy=0;entryPerimeter=0;endArrow=none;endFill=0;startArrow=classic;startFill=1;fillColor=#dae8fc;strokeColor=#6c8ebf;" edge="1" parent="1" source="aoOViALbAzrnRGuM8VXM-13" target="aoOViALbAzrnRGuM8VXM-27">
          <mxGeometry relative="1" as="geometry">
            <mxPoint x="529" y="490" as="targetPoint" />
          </mxGeometry>
        </mxCell>
        <mxCell id="aoOViALbAzrnRGuM8VXM-38" value="&lt;font style=&quot;font-size: 14px;&quot;&gt;store file read/wal file read&lt;/font&gt;" style="edgeLabel;html=1;align=center;verticalAlign=middle;resizable=0;points=[];fontSize=20;fontFamily=Architects Daughter;" vertex="1" connectable="0" parent="aoOViALbAzrnRGuM8VXM-36">
          <mxGeometry x="0.1778" relative="1" as="geometry">
            <mxPoint x="91" y="-3" as="offset" />
          </mxGeometry>
        </mxCell>
        <mxCell id="aoOViALbAzrnRGuM8VXM-44" style="edgeStyle=orthogonalEdgeStyle;rounded=0;hachureGap=4;orthogonalLoop=1;jettySize=auto;html=1;entryX=0.5;entryY=0;entryDx=0;entryDy=0;fontFamily=Architects Daughter;fontSource=https%3A%2F%2Ffonts.googleapis.com%2Fcss%3Ffamily%3DArchitects%2BDaughter;fontSize=16;endArrow=none;endFill=0;exitX=1;exitY=0.5;exitDx=0;exitDy=0;fillColor=#dae8fc;strokeColor=#6c8ebf;" edge="1" parent="1" source="aoOViALbAzrnRGuM8VXM-13" target="aoOViALbAzrnRGuM8VXM-40">
          <mxGeometry relative="1" as="geometry">
            <Array as="points">
              <mxPoint x="590" y="370" />
              <mxPoint x="590" y="470" />
              <mxPoint x="827" y="470" />
            </Array>
          </mxGeometry>
        </mxCell>
        <mxCell id="aoOViALbAzrnRGuM8VXM-45" value="api write" style="edgeLabel;html=1;align=center;verticalAlign=middle;resizable=0;points=[];fontSize=20;fontFamily=Architects Daughter;" vertex="1" connectable="0" parent="aoOViALbAzrnRGuM8VXM-44">
          <mxGeometry x="0.6583" y="-2" relative="1" as="geometry">
            <mxPoint x="-29" as="offset" />
          </mxGeometry>
        </mxCell>
        <mxCell id="aoOViALbAzrnRGuM8VXM-13" value="Phoenix&lt;br&gt;Plugin" style="rounded=0;whiteSpace=wrap;html=1;hachureGap=4;fontFamily=Architects Daughter;fontSource=https%3A%2F%2Ffonts.googleapis.com%2Fcss%3Ffamily%3DArchitects%2BDaughter;fontSize=20;" vertex="1" parent="1">
          <mxGeometry x="484" y="351" width="90" height="60" as="geometry" />
        </mxCell>
        <mxCell id="aoOViALbAzrnRGuM8VXM-14" value="Kafka&lt;br&gt;Plugin" style="rounded=0;whiteSpace=wrap;html=1;hachureGap=4;fontFamily=Architects Daughter;fontSource=https%3A%2F%2Ffonts.googleapis.com%2Fcss%3Ffamily%3DArchitects%2BDaughter;fontSize=20;" vertex="1" parent="1">
          <mxGeometry x="610" y="351" width="90" height="60" as="geometry" />
        </mxCell>
        <mxCell id="aoOViALbAzrnRGuM8VXM-16" value="hearbeat/dispatch task" style="endArrow=classic;startArrow=classic;html=1;rounded=0;sketch=1;hachureGap=4;jiggle=2;curveFitting=1;fontFamily=Architects Daughter;fontSource=https%3A%2F%2Ffonts.googleapis.com%2Fcss%3Ffamily%3DArchitects%2BDaughter;fontSize=16;exitX=0.658;exitY=-0.017;exitDx=0;exitDy=0;exitPerimeter=0;entryX=0.5;entryY=1;entryDx=0;entryDy=0;" edge="1" parent="1" source="aoOViALbAzrnRGuM8VXM-6" target="aoOViALbAzrnRGuM8VXM-4">
          <mxGeometry width="50" height="50" relative="1" as="geometry">
            <mxPoint x="400" y="240" as="sourcePoint" />
            <mxPoint x="450" y="190" as="targetPoint" />
          </mxGeometry>
        </mxCell>
        <mxCell id="aoOViALbAzrnRGuM8VXM-18" value="" style="endArrow=classic;startArrow=classic;html=1;rounded=0;sketch=1;hachureGap=4;jiggle=2;curveFitting=1;fontFamily=Architects Daughter;fontSource=https%3A%2F%2Ffonts.googleapis.com%2Fcss%3Ffamily%3DArchitects%2BDaughter;fontSize=16;exitX=0.5;exitY=0;exitDx=0;exitDy=0;entryX=0.5;entryY=1;entryDx=0;entryDy=0;" edge="1" parent="1" source="aoOViALbAzrnRGuM8VXM-7" target="aoOViALbAzrnRGuM8VXM-4">
          <mxGeometry width="50" height="50" relative="1" as="geometry">
            <mxPoint x="430" y="250" as="sourcePoint" />
            <mxPoint x="480" y="200" as="targetPoint" />
          </mxGeometry>
        </mxCell>
        <mxCell id="aoOViALbAzrnRGuM8VXM-19" value="" style="endArrow=classic;startArrow=classic;html=1;rounded=0;sketch=1;hachureGap=4;jiggle=2;curveFitting=1;fontFamily=Architects Daughter;fontSource=https%3A%2F%2Ffonts.googleapis.com%2Fcss%3Ffamily%3DArchitects%2BDaughter;fontSize=16;exitX=0.5;exitY=0;exitDx=0;exitDy=0;" edge="1" parent="1" source="aoOViALbAzrnRGuM8VXM-8">
          <mxGeometry width="50" height="50" relative="1" as="geometry">
            <mxPoint x="530" y="250" as="sourcePoint" />
            <mxPoint x="480" y="180" as="targetPoint" />
          </mxGeometry>
        </mxCell>
        <mxCell id="aoOViALbAzrnRGuM8VXM-20" value="load/read/write" style="endArrow=classic;startArrow=classic;html=1;rounded=0;sketch=1;hachureGap=4;jiggle=2;curveFitting=1;fontFamily=Architects Daughter;fontSource=https%3A%2F%2Ffonts.googleapis.com%2Fcss%3Ffamily%3DArchitects%2BDaughter;fontSize=16;" edge="1" parent="1" source="aoOViALbAzrnRGuM8VXM-15">
          <mxGeometry width="50" height="50" relative="1" as="geometry">
            <mxPoint x="360" y="330" as="sourcePoint" />
            <mxPoint x="410" y="280" as="targetPoint" />
          </mxGeometry>
        </mxCell>
        <mxCell id="aoOViALbAzrnRGuM8VXM-21" value="" style="endArrow=classic;startArrow=classic;html=1;rounded=0;sketch=1;hachureGap=4;jiggle=2;curveFitting=1;fontFamily=Architects Daughter;fontSource=https%3A%2F%2Ffonts.googleapis.com%2Fcss%3Ffamily%3DArchitects%2BDaughter;fontSize=16;" edge="1" parent="1">
          <mxGeometry width="50" height="50" relative="1" as="geometry">
            <mxPoint x="200" y="360" as="sourcePoint" />
            <mxPoint x="270" y="360" as="targetPoint" />
          </mxGeometry>
        </mxCell>
        <mxCell id="aoOViALbAzrnRGuM8VXM-22" value="config/elect" style="edgeLabel;html=1;align=center;verticalAlign=middle;resizable=0;points=[];fontSize=20;fontFamily=Architects Daughter;" vertex="1" connectable="0" parent="aoOViALbAzrnRGuM8VXM-21">
          <mxGeometry x="-0.0857" y="-3" relative="1" as="geometry">
            <mxPoint x="-2" y="-33" as="offset" />
          </mxGeometry>
        </mxCell>
        <mxCell id="aoOViALbAzrnRGuM8VXM-24" value="config dr strategy" style="edgeStyle=orthogonalEdgeStyle;rounded=0;sketch=1;hachureGap=4;jiggle=2;curveFitting=1;orthogonalLoop=1;jettySize=auto;html=1;entryX=0;entryY=0.5;entryDx=0;entryDy=0;fontFamily=Architects Daughter;fontSource=https%3A%2F%2Ffonts.googleapis.com%2Fcss%3Ffamily%3DArchitects%2BDaughter;fontSize=16;" edge="1" parent="1" source="aoOViALbAzrnRGuM8VXM-23" target="aoOViALbAzrnRGuM8VXM-9">
          <mxGeometry x="0.5" y="20" relative="1" as="geometry">
            <mxPoint as="offset" />
          </mxGeometry>
        </mxCell>
        <mxCell id="aoOViALbAzrnRGuM8VXM-23" value="Actor" style="shape=umlActor;verticalLabelPosition=bottom;verticalAlign=top;html=1;outlineConnect=0;sketch=1;hachureGap=4;jiggle=2;curveFitting=1;fontFamily=Architects Daughter;fontSource=https%3A%2F%2Ffonts.googleapis.com%2Fcss%3Ffamily%3DArchitects%2BDaughter;fontSize=20;" vertex="1" parent="1">
          <mxGeometry x="-90" y="120" width="30" height="60" as="geometry" />
        </mxCell>
        <mxCell id="aoOViALbAzrnRGuM8VXM-27" value="" style="rounded=0;whiteSpace=wrap;html=1;hachureGap=4;fontFamily=Architects Daughter;fontSource=https%3A%2F%2Ffonts.googleapis.com%2Fcss%3Ffamily%3DArchitects%2BDaughter;fontSize=20;" vertex="1" parent="1">
          <mxGeometry x="287" y="500" width="303" height="105" as="geometry" />
        </mxCell>
        <mxCell id="aoOViALbAzrnRGuM8VXM-28" value="HBase" style="text;html=1;strokeColor=none;fillColor=none;align=center;verticalAlign=middle;whiteSpace=wrap;rounded=0;fontSize=20;fontFamily=Architects Daughter;" vertex="1" parent="1">
          <mxGeometry x="337.5" y="500" width="186" height="30" as="geometry" />
        </mxCell>
        <mxCell id="aoOViALbAzrnRGuM8VXM-30" value="HFile" style="rounded=0;whiteSpace=wrap;html=1;hachureGap=4;fontFamily=Architects Daughter;fontSource=https%3A%2F%2Ffonts.googleapis.com%2Fcss%3Ffamily%3DArchitects%2BDaughter;fontSize=20;" vertex="1" parent="1">
          <mxGeometry x="320" y="530" width="90" height="60" as="geometry" />
        </mxCell>
        <mxCell id="aoOViALbAzrnRGuM8VXM-31" value="WAL" style="rounded=0;whiteSpace=wrap;html=1;hachureGap=4;fontFamily=Architects Daughter;fontSource=https%3A%2F%2Ffonts.googleapis.com%2Fcss%3Ffamily%3DArchitects%2BDaughter;fontSize=20;" vertex="1" parent="1">
          <mxGeometry x="433.5" y="530" width="90" height="60" as="geometry" />
        </mxCell>
        <mxCell id="aoOViALbAzrnRGuM8VXM-34" value="full/increment data&lt;br&gt;store file read/wal file read" style="endArrow=none;html=1;rounded=0;hachureGap=4;fontFamily=Architects Daughter;fontSource=https%3A%2F%2Ffonts.googleapis.com%2Fcss%3Ffamily%3DArchitects%2BDaughter;fontSize=16;endFill=0;startArrow=classic;startFill=0;fillColor=#ffe6cc;strokeColor=#d79b00;" edge="1" parent="1">
          <mxGeometry x="0.3333" y="-50" width="50" height="50" relative="1" as="geometry">
            <mxPoint x="390" y="410" as="sourcePoint" />
            <mxPoint x="390" y="500" as="targetPoint" />
            <mxPoint as="offset" />
          </mxGeometry>
        </mxCell>
        <mxCell id="aoOViALbAzrnRGuM8VXM-39" value="" style="rounded=0;whiteSpace=wrap;html=1;hachureGap=4;fontFamily=Architects Daughter;fontSource=https%3A%2F%2Ffonts.googleapis.com%2Fcss%3Ffamily%3DArchitects%2BDaughter;fontSize=20;" vertex="1" parent="1">
          <mxGeometry x="670" y="500" width="303" height="105" as="geometry" />
        </mxCell>
        <mxCell id="aoOViALbAzrnRGuM8VXM-40" value="HBase" style="text;html=1;strokeColor=none;fillColor=none;align=center;verticalAlign=middle;whiteSpace=wrap;rounded=0;fontSize=20;fontFamily=Architects Daughter;" vertex="1" parent="1">
          <mxGeometry x="797" y="500" width="60" height="30" as="geometry" />
        </mxCell>
        <mxCell id="aoOViALbAzrnRGuM8VXM-41" value="HFile" style="rounded=0;whiteSpace=wrap;html=1;hachureGap=4;fontFamily=Architects Daughter;fontSource=https%3A%2F%2Ffonts.googleapis.com%2Fcss%3Ffamily%3DArchitects%2BDaughter;fontSize=20;" vertex="1" parent="1">
          <mxGeometry x="750" y="530" width="90" height="60" as="geometry" />
        </mxCell>
        <mxCell id="aoOViALbAzrnRGuM8VXM-42" value="WAL" style="rounded=0;whiteSpace=wrap;html=1;hachureGap=4;fontFamily=Architects Daughter;fontSource=https%3A%2F%2Ffonts.googleapis.com%2Fcss%3Ffamily%3DArchitects%2BDaughter;fontSize=20;" vertex="1" parent="1">
          <mxGeometry x="863.5" y="530" width="90" height="60" as="geometry" />
        </mxCell>
        <mxCell id="aoOViALbAzrnRGuM8VXM-43" value="store file write" style="edgeStyle=orthogonalEdgeStyle;rounded=0;hachureGap=4;orthogonalLoop=1;jettySize=auto;html=1;entryX=0;entryY=0.5;entryDx=0;entryDy=0;fontFamily=Architects Daughter;fontSource=https%3A%2F%2Ffonts.googleapis.com%2Fcss%3Ffamily%3DArchitects%2BDaughter;fontSize=16;fillColor=#ffe6cc;strokeColor=#d79b00;" edge="1" parent="1" source="aoOViALbAzrnRGuM8VXM-12" target="aoOViALbAzrnRGuM8VXM-39">
          <mxGeometry x="0.5569" y="10" relative="1" as="geometry">
            <Array as="points">
              <mxPoint x="420" y="480" />
              <mxPoint x="610" y="480" />
              <mxPoint x="610" y="553" />
            </Array>
            <mxPoint as="offset" />
          </mxGeometry>
        </mxCell>
        <mxCell id="aoOViALbAzrnRGuM8VXM-46" value="HBase replication&amp;nbsp;" style="text;html=1;strokeColor=none;fillColor=none;align=center;verticalAlign=middle;whiteSpace=wrap;rounded=0;fontSize=20;fontFamily=Architects Daughter;" vertex="1" parent="1">
          <mxGeometry x="450" y="70" width="196" height="30" as="geometry" />
        </mxCell>
        <mxCell id="aoOViALbAzrnRGuM8VXM-50" value="Plugin" style="text;html=1;strokeColor=none;fillColor=none;align=center;verticalAlign=middle;whiteSpace=wrap;rounded=0;fontSize=20;fontFamily=Architects Daughter;" vertex="1" parent="1">
          <mxGeometry x="320" y="320" width="60" height="30" as="geometry" />
        </mxCell>
        <mxCell id="aoOViALbAzrnRGuM8VXM-51" value="hbase shell take snapshot per table" style="rounded=0;whiteSpace=wrap;html=1;sketch=1;hachureGap=4;jiggle=2;curveFitting=1;fontFamily=Architects Daughter;fontSource=https%3A%2F%2Ffonts.googleapis.com%2Fcss%3Ffamily%3DArchitects%2BDaughter;fontSize=20;" vertex="1" parent="1">
          <mxGeometry x="-140" y="1320" width="160" height="80" as="geometry" />
        </mxCell>
        <mxCell id="aoOViALbAzrnRGuM8VXM-52" value="HMaster&lt;br&gt;take snapshot" style="rounded=0;whiteSpace=wrap;html=1;sketch=1;hachureGap=4;jiggle=2;curveFitting=1;fontFamily=Architects Daughter;fontSource=https%3A%2F%2Ffonts.googleapis.com%2Fcss%3Ffamily%3DArchitects%2BDaughter;fontSize=20;" vertex="1" parent="1">
          <mxGeometry x="130" y="1320" width="160" height="80" as="geometry" />
        </mxCell>
        <mxCell id="aoOViALbAzrnRGuM8VXM-53" value="take the table lock to avoid merge/split procedures" style="rounded=0;whiteSpace=wrap;html=1;sketch=1;hachureGap=4;jiggle=2;curveFitting=1;fontFamily=Architects Daughter;fontSource=https%3A%2F%2Ffonts.googleapis.com%2Fcss%3Ffamily%3DArchitects%2BDaughter;fontSize=20;" vertex="1" parent="1">
          <mxGeometry x="133.5" y="1460" width="156.5" height="90" as="geometry" />
        </mxCell>
        <mxCell id="aoOViALbAzrnRGuM8VXM-54" value="HBase &amp;nbsp;backup" style="text;html=1;strokeColor=none;fillColor=none;align=center;verticalAlign=middle;whiteSpace=wrap;rounded=0;fontSize=20;fontFamily=Architects Daughter;" vertex="1" parent="1">
          <mxGeometry x="-140" y="1250" width="150" height="30" as="geometry" />
        </mxCell>
        <mxCell id="aoOViALbAzrnRGuM8VXM-55" value="snapshotRegions" style="rounded=0;whiteSpace=wrap;html=1;sketch=1;hachureGap=4;jiggle=2;curveFitting=1;fontFamily=Architects Daughter;fontSource=https%3A%2F%2Ffonts.googleapis.com%2Fcss%3Ffamily%3DArchitects%2BDaughter;fontSize=20;" vertex="1" parent="1">
          <mxGeometry x="128.5" y="1628" width="160" height="51" as="geometry" />
        </mxCell>
        <mxCell id="aoOViALbAzrnRGuM8VXM-57" value="sendGlobalBarrierAcquire" style="rounded=0;whiteSpace=wrap;html=1;sketch=1;hachureGap=4;jiggle=2;curveFitting=1;fontFamily=Architects Daughter;fontSource=https%3A%2F%2Ffonts.googleapis.com%2Fcss%3Ffamily%3DArchitects%2BDaughter;fontSize=20;" vertex="1" parent="1">
          <mxGeometry x="370" y="1628" width="233" height="62" as="geometry" />
        </mxCell>
        <mxCell id="aoOViALbAzrnRGuM8VXM-58" value="ZKProcedureCoordinator" style="text;html=1;strokeColor=none;fillColor=none;align=center;verticalAlign=middle;whiteSpace=wrap;rounded=0;fontSize=20;fontFamily=Architects Daughter;" vertex="1" parent="1">
          <mxGeometry x="423" y="1270" width="150" height="30" as="geometry" />
        </mxCell>
        <mxCell id="aoOViALbAzrnRGuM8VXM-59" value="zk&lt;br&gt;procType/acquired/znode" style="text;html=1;strokeColor=none;fillColor=none;align=left;verticalAlign=middle;whiteSpace=wrap;rounded=0;fontSize=20;fontFamily=Architects Daughter;" vertex="1" parent="1">
          <mxGeometry x="646" y="1644" width="60" height="30" as="geometry" />
        </mxCell>
        <mxCell id="aoOViALbAzrnRGuM8VXM-60" value="" style="rounded=0;whiteSpace=wrap;html=1;sketch=1;hachureGap=4;jiggle=2;curveFitting=1;fontFamily=Architects Daughter;fontSource=https%3A%2F%2Ffonts.googleapis.com%2Fcss%3Ffamily%3DArchitects%2BDaughter;fontSize=20;" vertex="1" parent="1">
          <mxGeometry x="1030" y="190" width="170" height="90" as="geometry" />
        </mxCell>
        <mxCell id="aoOViALbAzrnRGuM8VXM-61" value="CDC" style="text;html=1;strokeColor=none;fillColor=none;align=center;verticalAlign=middle;whiteSpace=wrap;rounded=0;fontSize=20;fontFamily=Architects Daughter;" vertex="1" parent="1">
          <mxGeometry x="1085" y="230" width="60" height="30" as="geometry" />
        </mxCell>
        <mxCell id="aoOViALbAzrnRGuM8VXM-62" value="" style="rounded=0;whiteSpace=wrap;html=1;sketch=1;hachureGap=4;jiggle=2;curveFitting=1;fontFamily=Architects Daughter;fontSource=https%3A%2F%2Ffonts.googleapis.com%2Fcss%3Ffamily%3DArchitects%2BDaughter;fontSize=20;" vertex="1" parent="1">
          <mxGeometry x="1430" y="190" width="170" height="90" as="geometry" />
        </mxCell>
        <mxCell id="aoOViALbAzrnRGuM8VXM-63" value="RTS" style="text;html=1;strokeColor=none;fillColor=none;align=center;verticalAlign=middle;whiteSpace=wrap;rounded=0;fontSize=20;fontFamily=Architects Daughter;" vertex="1" parent="1">
          <mxGeometry x="1485" y="230" width="60" height="30" as="geometry" />
        </mxCell>
        <mxCell id="aoOViALbAzrnRGuM8VXM-64" value="" style="endArrow=classic;html=1;rounded=0;sketch=1;hachureGap=4;jiggle=2;curveFitting=1;fontFamily=Architects Daughter;fontSource=https%3A%2F%2Ffonts.googleapis.com%2Fcss%3Ffamily%3DArchitects%2BDaughter;fontSize=16;" edge="1" parent="1">
          <mxGeometry width="50" height="50" relative="1" as="geometry">
            <mxPoint x="1230" y="200" as="sourcePoint" />
            <mxPoint x="1420" y="200" as="targetPoint" />
          </mxGeometry>
        </mxCell>
        <mxCell id="aoOViALbAzrnRGuM8VXM-65" value="read HFile/WAL&lt;br&gt;api write cdc data" style="edgeLabel;html=1;align=center;verticalAlign=middle;resizable=0;points=[];fontSize=20;fontFamily=Architects Daughter;" vertex="1" connectable="0" parent="aoOViALbAzrnRGuM8VXM-64">
          <mxGeometry y="4" relative="1" as="geometry">
            <mxPoint x="-15" y="-26" as="offset" />
          </mxGeometry>
        </mxCell>
        <mxCell id="aoOViALbAzrnRGuM8VXM-66" value="" style="endArrow=classic;html=1;rounded=0;sketch=1;hachureGap=4;jiggle=2;curveFitting=1;fontFamily=Architects Daughter;fontSource=https%3A%2F%2Ffonts.googleapis.com%2Fcss%3Ffamily%3DArchitects%2BDaughter;fontSize=16;" edge="1" parent="1">
          <mxGeometry width="50" height="50" relative="1" as="geometry">
            <mxPoint x="1420" y="250" as="sourcePoint" />
            <mxPoint x="1220" y="250" as="targetPoint" />
            <Array as="points" />
          </mxGeometry>
        </mxCell>
        <mxCell id="aoOViALbAzrnRGuM8VXM-67" value="api write rts data" style="edgeLabel;html=1;align=center;verticalAlign=middle;resizable=0;points=[];fontSize=20;fontFamily=Architects Daughter;" vertex="1" connectable="0" parent="aoOViALbAzrnRGuM8VXM-66">
          <mxGeometry x="-0.3636" y="1" relative="1" as="geometry">
            <mxPoint x="-19" y="29" as="offset" />
          </mxGeometry>
        </mxCell>
        <mxCell id="aoOViALbAzrnRGuM8VXM-70" value="HBase" style="text;html=1;strokeColor=none;fillColor=none;align=center;verticalAlign=middle;whiteSpace=wrap;rounded=0;fontSize=20;fontFamily=Architects Daughter;" vertex="1" parent="1">
          <mxGeometry x="1077" y="190" width="60" height="30" as="geometry" />
        </mxCell>
        <mxCell id="aoOViALbAzrnRGuM8VXM-71" value="HBase" style="text;html=1;strokeColor=none;fillColor=none;align=center;verticalAlign=middle;whiteSpace=wrap;rounded=0;fontSize=20;fontFamily=Architects Daughter;" vertex="1" parent="1">
          <mxGeometry x="1485" y="190" width="60" height="30" as="geometry" />
        </mxCell>
        <mxCell id="aoOViALbAzrnRGuM8VXM-74" value="测试场景&lt;br&gt;1） ddl&lt;br&gt;2）大数据量压力测试&lt;br&gt;3）异常切换集群&lt;br&gt;4）异常恢复后，切回集成测试&lt;br&gt;5) rto, rpo&lt;br&gt;6) 切换流程&lt;br&gt;&lt;br&gt;ProtobufLogReader&lt;br&gt;consumer.getLastEntry.getCheckPoint, reader.getPosition" style="text;html=1;strokeColor=none;fillColor=none;align=left;verticalAlign=top;whiteSpace=wrap;rounded=0;fontSize=20;fontFamily=Architects Daughter;" vertex="1" parent="1">
          <mxGeometry x="-140" y="710" width="590" height="170" as="geometry" />
        </mxCell>
        <mxCell id="aoOViALbAzrnRGuM8VXM-75" value="PhoenixMigrationProc" style="text;html=1;strokeColor=none;fillColor=none;align=center;verticalAlign=middle;whiteSpace=wrap;rounded=0;fontSize=20;fontFamily=Architects Daughter;" vertex="1" parent="1">
          <mxGeometry x="-230" y="1980" width="60" height="30" as="geometry" />
        </mxCell>
        <mxCell id="aoOViALbAzrnRGuM8VXM-78" value="" style="edgeStyle=orthogonalEdgeStyle;rounded=0;sketch=1;hachureGap=4;jiggle=2;curveFitting=1;orthogonalLoop=1;jettySize=auto;html=1;fontFamily=Architects Daughter;fontSource=https%3A%2F%2Ffonts.googleapis.com%2Fcss%3Ffamily%3DArchitects%2BDaughter;fontSize=16;" edge="1" parent="1" source="aoOViALbAzrnRGuM8VXM-76" target="aoOViALbAzrnRGuM8VXM-77">
          <mxGeometry relative="1" as="geometry" />
        </mxCell>
        <mxCell id="aoOViALbAzrnRGuM8VXM-79" value="PhoenixMigrationProc" style="edgeLabel;html=1;align=center;verticalAlign=middle;resizable=0;points=[];fontSize=20;fontFamily=Architects Daughter;" vertex="1" connectable="0" parent="aoOViALbAzrnRGuM8VXM-78">
          <mxGeometry x="-0.18" y="1" relative="1" as="geometry">
            <mxPoint x="24" y="-39" as="offset" />
          </mxGeometry>
        </mxCell>
        <mxCell id="aoOViALbAzrnRGuM8VXM-76" value="proc/submit." style="rounded=0;whiteSpace=wrap;html=1;sketch=1;hachureGap=4;jiggle=2;curveFitting=1;fontFamily=Architects Daughter;fontSource=https%3A%2F%2Ffonts.googleapis.com%2Fcss%3Ffamily%3DArchitects%2BDaughter;fontSize=20;" vertex="1" parent="1">
          <mxGeometry x="-290" y="2090" width="120" height="60" as="geometry" />
        </mxCell>
        <mxCell id="aoOViALbAzrnRGuM8VXM-81" value="" style="edgeStyle=orthogonalEdgeStyle;rounded=0;sketch=1;hachureGap=4;jiggle=2;curveFitting=1;orthogonalLoop=1;jettySize=auto;html=1;fontFamily=Architects Daughter;fontSource=https%3A%2F%2Ffonts.googleapis.com%2Fcss%3Ffamily%3DArchitects%2BDaughter;fontSize=16;" edge="1" parent="1" source="aoOViALbAzrnRGuM8VXM-77" target="aoOViALbAzrnRGuM8VXM-80">
          <mxGeometry relative="1" as="geometry" />
        </mxCell>
        <mxCell id="aoOViALbAzrnRGuM8VXM-77" value="MasterRPCServicePro&lt;br&gt;submitProc" style="rounded=0;whiteSpace=wrap;html=1;sketch=1;hachureGap=4;jiggle=2;curveFitting=1;fontFamily=Architects Daughter;fontSource=https%3A%2F%2Ffonts.googleapis.com%2Fcss%3Ffamily%3DArchitects%2BDaughter;fontSize=20;" vertex="1" parent="1">
          <mxGeometry x="-20" y="2090" width="240" height="60" as="geometry" />
        </mxCell>
        <mxCell id="aoOViALbAzrnRGuM8VXM-83" value="" style="edgeStyle=orthogonalEdgeStyle;rounded=0;sketch=1;hachureGap=4;jiggle=2;curveFitting=1;orthogonalLoop=1;jettySize=auto;html=1;fontFamily=Architects Daughter;fontSource=https%3A%2F%2Ffonts.googleapis.com%2Fcss%3Ffamily%3DArchitects%2BDaughter;fontSize=16;" edge="1" parent="1" source="aoOViALbAzrnRGuM8VXM-80" target="aoOViALbAzrnRGuM8VXM-82">
          <mxGeometry relative="1" as="geometry" />
        </mxCell>
        <mxCell id="aoOViALbAzrnRGuM8VXM-80" value="ProcedureExecutor&lt;br&gt;submit" style="rounded=0;whiteSpace=wrap;html=1;sketch=1;hachureGap=4;jiggle=2;curveFitting=1;fontFamily=Architects Daughter;fontSource=https%3A%2F%2Ffonts.googleapis.com%2Fcss%3Ffamily%3DArchitects%2BDaughter;fontSize=20;" vertex="1" parent="1">
          <mxGeometry x="300" y="2090" width="240" height="60" as="geometry" />
        </mxCell>
        <mxCell id="aoOViALbAzrnRGuM8VXM-87" value="" style="edgeStyle=orthogonalEdgeStyle;rounded=0;sketch=1;hachureGap=4;jiggle=2;curveFitting=1;orthogonalLoop=1;jettySize=auto;html=1;fontFamily=Architects Daughter;fontSource=https%3A%2F%2Ffonts.googleapis.com%2Fcss%3Ffamily%3DArchitects%2BDaughter;fontSize=16;" edge="1" parent="1" source="aoOViALbAzrnRGuM8VXM-82" target="aoOViALbAzrnRGuM8VXM-86">
          <mxGeometry relative="1" as="geometry" />
        </mxCell>
        <mxCell id="aoOViALbAzrnRGuM8VXM-82" value="ProcedureScheduler&lt;br&gt;addBack" style="rounded=0;whiteSpace=wrap;html=1;sketch=1;hachureGap=4;jiggle=2;curveFitting=1;fontFamily=Architects Daughter;fontSource=https%3A%2F%2Ffonts.googleapis.com%2Fcss%3Ffamily%3DArchitects%2BDaughter;fontSize=20;" vertex="1" parent="1">
          <mxGeometry x="300" y="2220" width="240" height="60" as="geometry" />
        </mxCell>
        <mxCell id="aoOViALbAzrnRGuM8VXM-89" value="" style="edgeStyle=orthogonalEdgeStyle;rounded=0;sketch=1;hachureGap=4;jiggle=2;curveFitting=1;orthogonalLoop=1;jettySize=auto;html=1;fontFamily=Architects Daughter;fontSource=https%3A%2F%2Ffonts.googleapis.com%2Fcss%3Ffamily%3DArchitects%2BDaughter;fontSize=16;" edge="1" parent="1" source="aoOViALbAzrnRGuM8VXM-84" target="aoOViALbAzrnRGuM8VXM-88">
          <mxGeometry relative="1" as="geometry" />
        </mxCell>
        <mxCell id="aoOViALbAzrnRGuM8VXM-84" value="ProcedureExecutor&lt;br&gt;WorkerThread" style="rounded=0;whiteSpace=wrap;html=1;sketch=1;hachureGap=4;jiggle=2;curveFitting=1;fontFamily=Architects Daughter;fontSource=https%3A%2F%2Ffonts.googleapis.com%2Fcss%3Ffamily%3DArchitects%2BDaughter;fontSize=20;" vertex="1" parent="1">
          <mxGeometry x="770" y="2060" width="240" height="60" as="geometry" />
        </mxCell>
        <mxCell id="aoOViALbAzrnRGuM8VXM-85" value="" style="shape=cylinder3;whiteSpace=wrap;html=1;boundedLbl=1;backgroundOutline=1;size=15;sketch=1;hachureGap=4;jiggle=2;curveFitting=1;fontFamily=Architects Daughter;fontSource=https%3A%2F%2Ffonts.googleapis.com%2Fcss%3Ffamily%3DArchitects%2BDaughter;fontSize=20;rotation=90;" vertex="1" parent="1">
          <mxGeometry x="610" y="2200" width="50" height="100" as="geometry" />
        </mxCell>
        <mxCell id="aoOViALbAzrnRGuM8VXM-90" style="edgeStyle=orthogonalEdgeStyle;rounded=0;sketch=1;hachureGap=4;jiggle=2;curveFitting=1;orthogonalLoop=1;jettySize=auto;html=1;fontFamily=Architects Daughter;fontSource=https%3A%2F%2Ffonts.googleapis.com%2Fcss%3Ffamily%3DArchitects%2BDaughter;fontSize=16;" edge="1" parent="1" source="aoOViALbAzrnRGuM8VXM-86" target="aoOViALbAzrnRGuM8VXM-88">
          <mxGeometry relative="1" as="geometry" />
        </mxCell>
        <mxCell id="aoOViALbAzrnRGuM8VXM-86" value="ProcedureDeque" style="text;html=1;strokeColor=none;fillColor=none;align=center;verticalAlign=middle;whiteSpace=wrap;rounded=0;fontSize=20;fontFamily=Architects Daughter;" vertex="1" parent="1">
          <mxGeometry x="600" y="2235" width="60" height="30" as="geometry" />
        </mxCell>
        <mxCell id="aoOViALbAzrnRGuM8VXM-88" value="" style="rounded=0;whiteSpace=wrap;html=1;sketch=1;hachureGap=4;jiggle=2;curveFitting=1;fontFamily=Architects Daughter;fontSource=https%3A%2F%2Ffonts.googleapis.com%2Fcss%3Ffamily%3DArchitects%2BDaughter;fontSize=20;" vertex="1" parent="1">
          <mxGeometry x="737.5" y="2220" width="502.5" height="430" as="geometry" />
        </mxCell>
        <mxCell id="aoOViALbAzrnRGuM8VXM-98" value="" style="edgeStyle=orthogonalEdgeStyle;rounded=0;sketch=1;hachureGap=4;jiggle=2;curveFitting=1;orthogonalLoop=1;jettySize=auto;html=1;fontFamily=Architects Daughter;fontSource=https%3A%2F%2Ffonts.googleapis.com%2Fcss%3Ffamily%3DArchitects%2BDaughter;fontSize=16;" edge="1" parent="1" source="aoOViALbAzrnRGuM8VXM-91" target="aoOViALbAzrnRGuM8VXM-97">
          <mxGeometry relative="1" as="geometry" />
        </mxCell>
        <mxCell id="aoOViALbAzrnRGuM8VXM-91" value="PhoenixMigrationProc&lt;br&gt;execute" style="rounded=0;whiteSpace=wrap;html=1;sketch=1;hachureGap=4;jiggle=2;curveFitting=1;fontFamily=Architects Daughter;fontSource=https%3A%2F%2Ffonts.googleapis.com%2Fcss%3Ffamily%3DArchitects%2BDaughter;fontSize=20;" vertex="1" parent="1">
          <mxGeometry x="760" y="2350" width="240" height="60" as="geometry" />
        </mxCell>
        <mxCell id="aoOViALbAzrnRGuM8VXM-100" value="" style="edgeStyle=orthogonalEdgeStyle;rounded=0;sketch=1;hachureGap=4;jiggle=2;curveFitting=1;orthogonalLoop=1;jettySize=auto;html=1;fontFamily=Architects Daughter;fontSource=https%3A%2F%2Ffonts.googleapis.com%2Fcss%3Ffamily%3DArchitects%2BDaughter;fontSize=16;" edge="1" parent="1" source="aoOViALbAzrnRGuM8VXM-97" target="aoOViALbAzrnRGuM8VXM-99">
          <mxGeometry relative="1" as="geometry" />
        </mxCell>
        <mxCell id="aoOViALbAzrnRGuM8VXM-101" value="N" style="edgeLabel;html=1;align=center;verticalAlign=middle;resizable=0;points=[];fontSize=20;fontFamily=Architects Daughter;" vertex="1" connectable="0" parent="aoOViALbAzrnRGuM8VXM-100">
          <mxGeometry x="-0.2381" y="-3" relative="1" as="geometry">
            <mxPoint as="offset" />
          </mxGeometry>
        </mxCell>
        <mxCell id="aoOViALbAzrnRGuM8VXM-106" value="" style="edgeStyle=orthogonalEdgeStyle;rounded=0;sketch=1;hachureGap=4;jiggle=2;curveFitting=1;orthogonalLoop=1;jettySize=auto;html=1;fontFamily=Architects Daughter;fontSource=https%3A%2F%2Ffonts.googleapis.com%2Fcss%3Ffamily%3DArchitects%2BDaughter;fontSize=16;" edge="1" parent="1" source="aoOViALbAzrnRGuM8VXM-97" target="aoOViALbAzrnRGuM8VXM-105">
          <mxGeometry relative="1" as="geometry" />
        </mxCell>
        <mxCell id="aoOViALbAzrnRGuM8VXM-107" value="Y" style="edgeLabel;html=1;align=center;verticalAlign=middle;resizable=0;points=[];fontSize=20;fontFamily=Architects Daughter;" vertex="1" connectable="0" parent="aoOViALbAzrnRGuM8VXM-106">
          <mxGeometry x="-0.0222" y="3" relative="1" as="geometry">
            <mxPoint as="offset" />
          </mxGeometry>
        </mxCell>
        <mxCell id="aoOViALbAzrnRGuM8VXM-97" value="proc.isFinished" style="rhombus;whiteSpace=wrap;html=1;fontSize=20;fontFamily=Architects Daughter;rounded=0;sketch=1;hachureGap=4;jiggle=2;curveFitting=1;fontSource=https%3A%2F%2Ffonts.googleapis.com%2Fcss%3Ffamily%3DArchitects%2BDaughter;" vertex="1" parent="1">
          <mxGeometry x="840" y="2450" width="80" height="62" as="geometry" />
        </mxCell>
        <mxCell id="aoOViALbAzrnRGuM8VXM-99" value="scheduler.addBack(proc)" style="whiteSpace=wrap;html=1;fontSize=20;fontFamily=Architects Daughter;rounded=0;sketch=1;hachureGap=4;jiggle=2;curveFitting=1;fontSource=https%3A%2F%2Ffonts.googleapis.com%2Fcss%3Ffamily%3DArchitects%2BDaughter;" vertex="1" parent="1">
          <mxGeometry x="820" y="2550" width="120" height="60" as="geometry" />
        </mxCell>
        <mxCell id="aoOViALbAzrnRGuM8VXM-102" value="run&lt;br&gt;while" style="text;html=1;strokeColor=none;fillColor=none;align=center;verticalAlign=middle;whiteSpace=wrap;rounded=0;fontSize=20;fontFamily=Architects Daughter;" vertex="1" parent="1">
          <mxGeometry x="846.5" y="2230" width="126.5" height="30" as="geometry" />
        </mxCell>
        <mxCell id="aoOViALbAzrnRGuM8VXM-104" value="" style="edgeStyle=orthogonalEdgeStyle;rounded=0;sketch=1;hachureGap=4;jiggle=2;curveFitting=1;orthogonalLoop=1;jettySize=auto;html=1;fontFamily=Architects Daughter;fontSource=https%3A%2F%2Ffonts.googleapis.com%2Fcss%3Ffamily%3DArchitects%2BDaughter;fontSize=16;" edge="1" parent="1" source="aoOViALbAzrnRGuM8VXM-103" target="aoOViALbAzrnRGuM8VXM-91">
          <mxGeometry relative="1" as="geometry" />
        </mxCell>
        <mxCell id="aoOViALbAzrnRGuM8VXM-103" value="scheduler.poll" style="whiteSpace=wrap;html=1;fontSize=20;fontFamily=Architects Daughter;rounded=0;sketch=1;hachureGap=4;jiggle=2;curveFitting=1;fontSource=https%3A%2F%2Ffonts.googleapis.com%2Fcss%3Ffamily%3DArchitects%2BDaughter;" vertex="1" parent="1">
          <mxGeometry x="820" y="2265" width="120" height="60" as="geometry" />
        </mxCell>
        <mxCell id="aoOViALbAzrnRGuM8VXM-105" value="metaStore.upsetProc" style="whiteSpace=wrap;html=1;fontSize=20;fontFamily=Architects Daughter;rounded=0;sketch=1;hachureGap=4;jiggle=2;curveFitting=1;fontSource=https%3A%2F%2Ffonts.googleapis.com%2Fcss%3Ffamily%3DArchitects%2BDaughter;" vertex="1" parent="1">
          <mxGeometry x="1010" y="2451" width="200" height="60" as="geometry" />
        </mxCell>
        <mxCell id="aoOViALbAzrnRGuM8VXM-148" style="edgeStyle=orthogonalEdgeStyle;rounded=0;sketch=1;hachureGap=4;jiggle=2;curveFitting=1;orthogonalLoop=1;jettySize=auto;html=1;fontFamily=Architects Daughter;fontSource=https%3A%2F%2Ffonts.googleapis.com%2Fcss%3Ffamily%3DArchitects%2BDaughter;fontSize=16;" edge="1" parent="1" source="aoOViALbAzrnRGuM8VXM-108" target="aoOViALbAzrnRGuM8VXM-147">
          <mxGeometry relative="1" as="geometry" />
        </mxCell>
        <mxCell id="aoOViALbAzrnRGuM8VXM-108" value="PhoenixMigrationProc&lt;br&gt;execute" style="rounded=0;whiteSpace=wrap;html=1;sketch=1;hachureGap=4;jiggle=2;curveFitting=1;fontFamily=Architects Daughter;fontSource=https%3A%2F%2Ffonts.googleapis.com%2Fcss%3Ffamily%3DArchitects%2BDaughter;fontSize=20;" vertex="1" parent="1">
          <mxGeometry x="-670" y="2980" width="240" height="60" as="geometry" />
        </mxCell>
        <mxCell id="aoOViALbAzrnRGuM8VXM-113" style="edgeStyle=orthogonalEdgeStyle;rounded=0;sketch=1;hachureGap=4;jiggle=2;curveFitting=1;orthogonalLoop=1;jettySize=auto;html=1;entryX=0;entryY=0.5;entryDx=0;entryDy=0;fontFamily=Architects Daughter;fontSource=https%3A%2F%2Ffonts.googleapis.com%2Fcss%3Ffamily%3DArchitects%2BDaughter;fontSize=16;" edge="1" parent="1" source="aoOViALbAzrnRGuM8VXM-111" target="aoOViALbAzrnRGuM8VXM-112">
          <mxGeometry relative="1" as="geometry" />
        </mxCell>
        <mxCell id="aoOViALbAzrnRGuM8VXM-111" value="create_table" style="ellipse;whiteSpace=wrap;html=1;aspect=fixed;sketch=1;hachureGap=4;jiggle=2;curveFitting=1;fontFamily=Architects Daughter;fontSource=https%3A%2F%2Ffonts.googleapis.com%2Fcss%3Ffamily%3DArchitects%2BDaughter;fontSize=20;" vertex="1" parent="1">
          <mxGeometry x="-280" y="2370" width="60" height="60" as="geometry" />
        </mxCell>
        <mxCell id="aoOViALbAzrnRGuM8VXM-118" value="" style="edgeStyle=orthogonalEdgeStyle;rounded=0;sketch=1;hachureGap=4;jiggle=2;curveFitting=1;orthogonalLoop=1;jettySize=auto;html=1;fontFamily=Architects Daughter;fontSource=https%3A%2F%2Ffonts.googleapis.com%2Fcss%3Ffamily%3DArchitects%2BDaughter;fontSize=16;" edge="1" parent="1" source="aoOViALbAzrnRGuM8VXM-112" target="aoOViALbAzrnRGuM8VXM-117">
          <mxGeometry relative="1" as="geometry" />
        </mxCell>
        <mxCell id="aoOViALbAzrnRGuM8VXM-112" value="submit_incr" style="ellipse;whiteSpace=wrap;html=1;aspect=fixed;sketch=1;hachureGap=4;jiggle=2;curveFitting=1;fontFamily=Architects Daughter;fontSource=https%3A%2F%2Ffonts.googleapis.com%2Fcss%3Ffamily%3DArchitects%2BDaughter;fontSize=20;" vertex="1" parent="1">
          <mxGeometry x="-105" y="2370" width="60" height="60" as="geometry" />
        </mxCell>
        <mxCell id="aoOViALbAzrnRGuM8VXM-120" value="" style="edgeStyle=orthogonalEdgeStyle;rounded=0;sketch=1;hachureGap=4;jiggle=2;curveFitting=1;orthogonalLoop=1;jettySize=auto;html=1;fontFamily=Architects Daughter;fontSource=https%3A%2F%2Ffonts.googleapis.com%2Fcss%3Ffamily%3DArchitects%2BDaughter;fontSize=16;" edge="1" parent="1" source="aoOViALbAzrnRGuM8VXM-117" target="aoOViALbAzrnRGuM8VXM-119">
          <mxGeometry relative="1" as="geometry" />
        </mxCell>
        <mxCell id="aoOViALbAzrnRGuM8VXM-117" value="submit_full" style="ellipse;whiteSpace=wrap;html=1;aspect=fixed;sketch=1;hachureGap=4;jiggle=2;curveFitting=1;fontFamily=Architects Daughter;fontSource=https%3A%2F%2Ffonts.googleapis.com%2Fcss%3Ffamily%3DArchitects%2BDaughter;fontSize=20;" vertex="1" parent="1">
          <mxGeometry x="-105" y="2460" width="60" height="60" as="geometry" />
        </mxCell>
        <mxCell id="aoOViALbAzrnRGuM8VXM-122" value="" style="edgeStyle=orthogonalEdgeStyle;rounded=0;sketch=1;hachureGap=4;jiggle=2;curveFitting=1;orthogonalLoop=1;jettySize=auto;html=1;fontFamily=Architects Daughter;fontSource=https%3A%2F%2Ffonts.googleapis.com%2Fcss%3Ffamily%3DArchitects%2BDaughter;fontSize=16;" edge="1" parent="1" source="aoOViALbAzrnRGuM8VXM-119" target="aoOViALbAzrnRGuM8VXM-121">
          <mxGeometry relative="1" as="geometry" />
        </mxCell>
        <mxCell id="aoOViALbAzrnRGuM8VXM-119" value="submit_merge" style="ellipse;whiteSpace=wrap;html=1;aspect=fixed;sketch=1;hachureGap=4;jiggle=2;curveFitting=1;fontFamily=Architects Daughter;fontSource=https%3A%2F%2Ffonts.googleapis.com%2Fcss%3Ffamily%3DArchitects%2BDaughter;fontSize=20;" vertex="1" parent="1">
          <mxGeometry x="35" y="2460" width="60" height="60" as="geometry" />
        </mxCell>
        <mxCell id="aoOViALbAzrnRGuM8VXM-124" value="" style="edgeStyle=orthogonalEdgeStyle;rounded=0;sketch=1;hachureGap=4;jiggle=2;curveFitting=1;orthogonalLoop=1;jettySize=auto;html=1;fontFamily=Architects Daughter;fontSource=https%3A%2F%2Ffonts.googleapis.com%2Fcss%3Ffamily%3DArchitects%2BDaughter;fontSize=16;" edge="1" parent="1" source="aoOViALbAzrnRGuM8VXM-121" target="aoOViALbAzrnRGuM8VXM-123">
          <mxGeometry relative="1" as="geometry" />
        </mxCell>
        <mxCell id="aoOViALbAzrnRGuM8VXM-121" value="create_index" style="ellipse;whiteSpace=wrap;html=1;aspect=fixed;sketch=1;hachureGap=4;jiggle=2;curveFitting=1;fontFamily=Architects Daughter;fontSource=https%3A%2F%2Ffonts.googleapis.com%2Fcss%3Ffamily%3DArchitects%2BDaughter;fontSize=20;" vertex="1" parent="1">
          <mxGeometry x="210" y="2460" width="60" height="60" as="geometry" />
        </mxCell>
        <mxCell id="aoOViALbAzrnRGuM8VXM-126" value="" style="edgeStyle=orthogonalEdgeStyle;rounded=0;sketch=1;hachureGap=4;jiggle=2;curveFitting=1;orthogonalLoop=1;jettySize=auto;html=1;fontFamily=Architects Daughter;fontSource=https%3A%2F%2Ffonts.googleapis.com%2Fcss%3Ffamily%3DArchitects%2BDaughter;fontSize=16;" edge="1" parent="1" source="aoOViALbAzrnRGuM8VXM-123" target="aoOViALbAzrnRGuM8VXM-125">
          <mxGeometry relative="1" as="geometry" />
        </mxCell>
        <mxCell id="aoOViALbAzrnRGuM8VXM-123" value="submit_check" style="ellipse;whiteSpace=wrap;html=1;aspect=fixed;sketch=1;hachureGap=4;jiggle=2;curveFitting=1;fontFamily=Architects Daughter;fontSource=https%3A%2F%2Ffonts.googleapis.com%2Fcss%3Ffamily%3DArchitects%2BDaughter;fontSize=20;" vertex="1" parent="1">
          <mxGeometry x="210" y="2570" width="60" height="60" as="geometry" />
        </mxCell>
        <mxCell id="aoOViALbAzrnRGuM8VXM-128" value="" style="edgeStyle=orthogonalEdgeStyle;rounded=0;sketch=1;hachureGap=4;jiggle=2;curveFitting=1;orthogonalLoop=1;jettySize=auto;html=1;fontFamily=Architects Daughter;fontSource=https%3A%2F%2Ffonts.googleapis.com%2Fcss%3Ffamily%3DArchitects%2BDaughter;fontSize=16;" edge="1" parent="1" source="aoOViALbAzrnRGuM8VXM-125" target="aoOViALbAzrnRGuM8VXM-127">
          <mxGeometry relative="1" as="geometry" />
        </mxCell>
        <mxCell id="aoOViALbAzrnRGuM8VXM-125" value="wait_for_sucess" style="ellipse;whiteSpace=wrap;html=1;aspect=fixed;sketch=1;hachureGap=4;jiggle=2;curveFitting=1;fontFamily=Architects Daughter;fontSource=https%3A%2F%2Ffonts.googleapis.com%2Fcss%3Ffamily%3DArchitects%2BDaughter;fontSize=20;" vertex="1" parent="1">
          <mxGeometry x="210" y="2690" width="60" height="60" as="geometry" />
        </mxCell>
        <mxCell id="aoOViALbAzrnRGuM8VXM-127" value="done" style="ellipse;whiteSpace=wrap;html=1;aspect=fixed;sketch=1;hachureGap=4;jiggle=2;curveFitting=1;fontFamily=Architects Daughter;fontSource=https%3A%2F%2Ffonts.googleapis.com%2Fcss%3Ffamily%3DArchitects%2BDaughter;fontSize=20;" vertex="1" parent="1">
          <mxGeometry x="210" y="2800" width="60" height="60" as="geometry" />
        </mxCell>
        <mxCell id="aoOViALbAzrnRGuM8VXM-131" value="" style="edgeStyle=orthogonalEdgeStyle;rounded=0;sketch=1;hachureGap=4;jiggle=2;curveFitting=1;orthogonalLoop=1;jettySize=auto;html=1;fontFamily=Architects Daughter;fontSource=https%3A%2F%2Ffonts.googleapis.com%2Fcss%3Ffamily%3DArchitects%2BDaughter;fontSize=16;" edge="1" parent="1" source="aoOViALbAzrnRGuM8VXM-129" target="aoOViALbAzrnRGuM8VXM-130">
          <mxGeometry relative="1" as="geometry" />
        </mxCell>
        <mxCell id="aoOViALbAzrnRGuM8VXM-129" value="buildSchemalJob" style="rounded=0;whiteSpace=wrap;html=1;sketch=1;hachureGap=4;jiggle=2;curveFitting=1;fontFamily=Architects Daughter;fontSource=https%3A%2F%2Ffonts.googleapis.com%2Fcss%3Ffamily%3DArchitects%2BDaughter;fontSize=20;" vertex="1" parent="1">
          <mxGeometry x="-176" y="3125" width="180" height="60" as="geometry" />
        </mxCell>
        <mxCell id="aoOViALbAzrnRGuM8VXM-130" value="Job&lt;br&gt;PHX_SCHEMA_JOB&lt;br&gt;phoenix_src_table, tablename&lt;br&gt;phoenix_dst_table, tablename&lt;br&gt;tables, tbs&lt;br&gt;tasks null" style="rounded=0;whiteSpace=wrap;html=1;sketch=1;hachureGap=4;jiggle=2;curveFitting=1;fontFamily=Architects Daughter;fontSource=https%3A%2F%2Ffonts.googleapis.com%2Fcss%3Ffamily%3DArchitects%2BDaughter;fontSize=20;" vertex="1" parent="1">
          <mxGeometry x="80" y="3070" width="350" height="90" as="geometry" />
        </mxCell>
        <mxCell id="aoOViALbAzrnRGuM8VXM-132" value="MigrationEnv&lt;br&gt;srcDs&lt;br&gt;sinkDs&lt;br&gt;schemaJob&lt;br&gt;fullJobs&lt;br&gt;incrJobs&lt;br&gt;mergeJobs&lt;br&gt;checkJobs&lt;br&gt;schemaIndexJob" style="rounded=0;whiteSpace=wrap;html=1;sketch=1;hachureGap=4;jiggle=2;curveFitting=1;fontFamily=Architects Daughter;fontSource=https%3A%2F%2Ffonts.googleapis.com%2Fcss%3Ffamily%3DArchitects%2BDaughter;fontSize=20;" vertex="1" parent="1">
          <mxGeometry x="-90" y="2650" width="270" height="245" as="geometry" />
        </mxCell>
        <mxCell id="aoOViALbAzrnRGuM8VXM-136" style="edgeStyle=orthogonalEdgeStyle;rounded=0;sketch=1;hachureGap=4;jiggle=2;curveFitting=1;orthogonalLoop=1;jettySize=auto;html=1;entryX=0;entryY=0.5;entryDx=0;entryDy=0;fontFamily=Architects Daughter;fontSource=https%3A%2F%2Ffonts.googleapis.com%2Fcss%3Ffamily%3DArchitects%2BDaughter;fontSize=16;" edge="1" parent="1" source="aoOViALbAzrnRGuM8VXM-133" target="aoOViALbAzrnRGuM8VXM-129">
          <mxGeometry relative="1" as="geometry" />
        </mxCell>
        <mxCell id="aoOViALbAzrnRGuM8VXM-139" value="create_table" style="edgeLabel;html=1;align=center;verticalAlign=middle;resizable=0;points=[];fontSize=20;fontFamily=Architects Daughter;" vertex="1" connectable="0" parent="aoOViALbAzrnRGuM8VXM-136">
          <mxGeometry x="0.2299" y="4" relative="1" as="geometry">
            <mxPoint as="offset" />
          </mxGeometry>
        </mxCell>
        <mxCell id="aoOViALbAzrnRGuM8VXM-137" style="edgeStyle=orthogonalEdgeStyle;rounded=0;sketch=1;hachureGap=4;jiggle=2;curveFitting=1;orthogonalLoop=1;jettySize=auto;html=1;entryX=0;entryY=0.5;entryDx=0;entryDy=0;fontFamily=Architects Daughter;fontSource=https%3A%2F%2Ffonts.googleapis.com%2Fcss%3Ffamily%3DArchitects%2BDaughter;fontSize=16;" edge="1" parent="1" source="aoOViALbAzrnRGuM8VXM-133" target="aoOViALbAzrnRGuM8VXM-134">
          <mxGeometry relative="1" as="geometry" />
        </mxCell>
        <mxCell id="aoOViALbAzrnRGuM8VXM-138" value="submit_incr" style="edgeLabel;html=1;align=center;verticalAlign=middle;resizable=0;points=[];fontSize=20;fontFamily=Architects Daughter;" vertex="1" connectable="0" parent="aoOViALbAzrnRGuM8VXM-137">
          <mxGeometry x="0.1262" y="-6" relative="1" as="geometry">
            <mxPoint as="offset" />
          </mxGeometry>
        </mxCell>
        <mxCell id="aoOViALbAzrnRGuM8VXM-133" value="switch &amp;nbsp;state" style="rhombus;whiteSpace=wrap;html=1;sketch=1;hachureGap=4;jiggle=2;curveFitting=1;fontFamily=Architects Daughter;fontSource=https%3A%2F%2Ffonts.googleapis.com%2Fcss%3Ffamily%3DArchitects%2BDaughter;fontSize=20;" vertex="1" parent="1">
          <mxGeometry x="-430" y="3115" width="80" height="80" as="geometry" />
        </mxCell>
        <mxCell id="aoOViALbAzrnRGuM8VXM-141" value="" style="edgeStyle=orthogonalEdgeStyle;rounded=0;sketch=1;hachureGap=4;jiggle=2;curveFitting=1;orthogonalLoop=1;jettySize=auto;html=1;fontFamily=Architects Daughter;fontSource=https%3A%2F%2Ffonts.googleapis.com%2Fcss%3Ffamily%3DArchitects%2BDaughter;fontSize=16;" edge="1" parent="1" source="aoOViALbAzrnRGuM8VXM-134" target="aoOViALbAzrnRGuM8VXM-140">
          <mxGeometry relative="1" as="geometry" />
        </mxCell>
        <mxCell id="aoOViALbAzrnRGuM8VXM-134" value="doIncrCopy" style="rounded=0;whiteSpace=wrap;html=1;sketch=1;hachureGap=4;jiggle=2;curveFitting=1;fontFamily=Architects Daughter;fontSource=https%3A%2F%2Ffonts.googleapis.com%2Fcss%3Ffamily%3DArchitects%2BDaughter;fontSize=20;" vertex="1" parent="1">
          <mxGeometry x="-170" y="3270" width="170" height="60" as="geometry" />
        </mxCell>
        <mxCell id="aoOViALbAzrnRGuM8VXM-143" value="" style="edgeStyle=orthogonalEdgeStyle;rounded=0;sketch=1;hachureGap=4;jiggle=2;curveFitting=1;orthogonalLoop=1;jettySize=auto;html=1;fontFamily=Architects Daughter;fontSource=https%3A%2F%2Ffonts.googleapis.com%2Fcss%3Ffamily%3DArchitects%2BDaughter;fontSize=16;" edge="1" parent="1" source="aoOViALbAzrnRGuM8VXM-140" target="aoOViALbAzrnRGuM8VXM-142">
          <mxGeometry relative="1" as="geometry" />
        </mxCell>
        <mxCell id="aoOViALbAzrnRGuM8VXM-152" value="" style="edgeStyle=orthogonalEdgeStyle;rounded=0;sketch=1;hachureGap=4;jiggle=2;curveFitting=1;orthogonalLoop=1;jettySize=auto;html=1;fontFamily=Architects Daughter;fontSource=https%3A%2F%2Ffonts.googleapis.com%2Fcss%3Ffamily%3DArchitects%2BDaughter;fontSize=16;" edge="1" parent="1" source="aoOViALbAzrnRGuM8VXM-140" target="aoOViALbAzrnRGuM8VXM-151">
          <mxGeometry relative="1" as="geometry" />
        </mxCell>
        <mxCell id="aoOViALbAzrnRGuM8VXM-140" value="isSchemaJobSuccess?" style="rhombus;whiteSpace=wrap;html=1;fontSize=20;fontFamily=Architects Daughter;rounded=0;sketch=1;hachureGap=4;jiggle=2;curveFitting=1;fontSource=https%3A%2F%2Ffonts.googleapis.com%2Fcss%3Ffamily%3DArchitects%2BDaughter;" vertex="1" parent="1">
          <mxGeometry x="110" y="3260" width="80" height="80" as="geometry" />
        </mxCell>
        <mxCell id="aoOViALbAzrnRGuM8VXM-142" value="buildIncrJobs" style="whiteSpace=wrap;html=1;fontSize=20;fontFamily=Architects Daughter;rounded=0;sketch=1;hachureGap=4;jiggle=2;curveFitting=1;fontSource=https%3A%2F%2Ffonts.googleapis.com%2Fcss%3Ffamily%3DArchitects%2BDaughter;" vertex="1" parent="1">
          <mxGeometry x="90" y="3390" width="120" height="60" as="geometry" />
        </mxCell>
        <mxCell id="aoOViALbAzrnRGuM8VXM-144" value="return has more state" style="whiteSpace=wrap;html=1;fontSize=20;fontFamily=Architects Daughter;sketch=1;hachureGap=4;jiggle=2;curveFitting=1;fontSource=https%3A%2F%2Ffonts.googleapis.com%2Fcss%3Ffamily%3DArchitects%2BDaughter;" vertex="1" parent="1">
          <mxGeometry x="-610" y="3350" width="120" height="60" as="geometry" />
        </mxCell>
        <mxCell id="aoOViALbAzrnRGuM8VXM-149" style="edgeStyle=orthogonalEdgeStyle;rounded=0;sketch=1;hachureGap=4;jiggle=2;curveFitting=1;orthogonalLoop=1;jettySize=auto;html=1;entryX=0.5;entryY=0;entryDx=0;entryDy=0;fontFamily=Architects Daughter;fontSource=https%3A%2F%2Ffonts.googleapis.com%2Fcss%3Ffamily%3DArchitects%2BDaughter;fontSize=16;" edge="1" parent="1" source="aoOViALbAzrnRGuM8VXM-147" target="aoOViALbAzrnRGuM8VXM-144">
          <mxGeometry relative="1" as="geometry" />
        </mxCell>
        <mxCell id="aoOViALbAzrnRGuM8VXM-150" style="edgeStyle=orthogonalEdgeStyle;rounded=0;sketch=1;hachureGap=4;jiggle=2;curveFitting=1;orthogonalLoop=1;jettySize=auto;html=1;entryX=0;entryY=0.5;entryDx=0;entryDy=0;fontFamily=Architects Daughter;fontSource=https%3A%2F%2Ffonts.googleapis.com%2Fcss%3Ffamily%3DArchitects%2BDaughter;fontSize=16;" edge="1" parent="1" source="aoOViALbAzrnRGuM8VXM-147" target="aoOViALbAzrnRGuM8VXM-133">
          <mxGeometry relative="1" as="geometry" />
        </mxCell>
        <mxCell id="aoOViALbAzrnRGuM8VXM-147" value="state machine" style="rounded=0;whiteSpace=wrap;html=1;sketch=1;hachureGap=4;jiggle=2;curveFitting=1;fontFamily=Architects Daughter;fontSource=https%3A%2F%2Ffonts.googleapis.com%2Fcss%3Ffamily%3DArchitects%2BDaughter;fontSize=20;" vertex="1" parent="1">
          <mxGeometry x="-610" y="3125" width="120" height="60" as="geometry" />
        </mxCell>
        <mxCell id="aoOViALbAzrnRGuM8VXM-151" value="break&lt;br&gt;next proc loop" style="whiteSpace=wrap;html=1;fontSize=20;fontFamily=Architects Daughter;rounded=0;sketch=1;hachureGap=4;jiggle=2;curveFitting=1;fontSource=https%3A%2F%2Ffonts.googleapis.com%2Fcss%3Ffamily%3DArchitects%2BDaughter;" vertex="1" parent="1">
          <mxGeometry x="280" y="3270" width="120" height="60" as="geometry" />
        </mxCell>
        <mxCell id="aoOViALbAzrnRGuM8VXM-155" value="" style="edgeStyle=orthogonalEdgeStyle;rounded=0;sketch=1;hachureGap=4;jiggle=2;curveFitting=1;orthogonalLoop=1;jettySize=auto;html=1;fontFamily=Architects Daughter;fontSource=https%3A%2F%2Ffonts.googleapis.com%2Fcss%3Ffamily%3DArchitects%2BDaughter;fontSize=16;" edge="1" parent="1" source="aoOViALbAzrnRGuM8VXM-153" target="aoOViALbAzrnRGuM8VXM-154">
          <mxGeometry relative="1" as="geometry" />
        </mxCell>
        <mxCell id="aoOViALbAzrnRGuM8VXM-153" value="MasterRPCServiceProImpl&lt;br&gt;submitJob" style="rounded=0;whiteSpace=wrap;html=1;sketch=1;hachureGap=4;jiggle=2;curveFitting=1;fontFamily=Architects Daughter;fontSource=https%3A%2F%2Ffonts.googleapis.com%2Fcss%3Ffamily%3DArchitects%2BDaughter;fontSize=20;" vertex="1" parent="1">
          <mxGeometry x="-640" y="3548.5" width="250" height="60" as="geometry" />
        </mxCell>
        <mxCell id="aoOViALbAzrnRGuM8VXM-154" value="getJobManagerByType&lt;br&gt;submitJob" style="rounded=0;whiteSpace=wrap;html=1;sketch=1;hachureGap=4;jiggle=2;curveFitting=1;fontFamily=Architects Daughter;fontSource=https%3A%2F%2Ffonts.googleapis.com%2Fcss%3Ffamily%3DArchitects%2BDaughter;fontSize=20;" vertex="1" parent="1">
          <mxGeometry x="-640" y="3688.5" width="250" height="60" as="geometry" />
        </mxCell>
        <mxCell id="aoOViALbAzrnRGuM8VXM-157" value="HBFullExportManager" style="whiteSpace=wrap;html=1;fontSize=20;fontFamily=Architects Daughter;sketch=1;hachureGap=4;jiggle=2;curveFitting=1;fontSource=https%3A%2F%2Ffonts.googleapis.com%2Fcss%3Ffamily%3DArchitects%2BDaughter;" vertex="1" parent="1">
          <mxGeometry x="-180" y="3607" width="230" height="60" as="geometry" />
        </mxCell>
        <mxCell id="aoOViALbAzrnRGuM8VXM-159" value="HBIncrExportManager" style="whiteSpace=wrap;html=1;fontSize=20;fontFamily=Architects Daughter;sketch=1;hachureGap=4;jiggle=2;curveFitting=1;fontSource=https%3A%2F%2Ffonts.googleapis.com%2Fcss%3Ffamily%3DArchitects%2BDaughter;" vertex="1" parent="1">
          <mxGeometry x="-180" y="3717" width="230" height="60" as="geometry" />
        </mxCell>
        <mxCell id="aoOViALbAzrnRGuM8VXM-160" value="CDCRecoverJobManager" style="whiteSpace=wrap;html=1;fontSize=20;fontFamily=Architects Daughter;sketch=1;hachureGap=4;jiggle=2;curveFitting=1;fontSource=https%3A%2F%2Ffonts.googleapis.com%2Fcss%3Ffamily%3DArchitects%2BDaughter;" vertex="1" parent="1">
          <mxGeometry x="-180" y="3837" width="230" height="60" as="geometry" />
        </mxCell>
        <mxCell id="aoOViALbAzrnRGuM8VXM-161" value="ImportJobManger" style="whiteSpace=wrap;html=1;fontSize=20;fontFamily=Architects Daughter;sketch=1;hachureGap=4;jiggle=2;curveFitting=1;fontSource=https%3A%2F%2Ffonts.googleapis.com%2Fcss%3Ffamily%3DArchitects%2BDaughter;" vertex="1" parent="1">
          <mxGeometry x="-180" y="3957" width="230" height="60" as="geometry" />
        </mxCell>
        <mxCell id="aoOViALbAzrnRGuM8VXM-162" value="XJobManager" style="whiteSpace=wrap;html=1;fontSize=20;fontFamily=Architects Daughter;sketch=1;hachureGap=4;jiggle=2;curveFitting=1;fontSource=https%3A%2F%2Ffonts.googleapis.com%2Fcss%3Ffamily%3DArchitects%2BDaughter;" vertex="1" parent="1">
          <mxGeometry x="-180" y="3507" width="230" height="60" as="geometry" />
        </mxCell>
        <mxCell id="aoOViALbAzrnRGuM8VXM-163" value="PHX_SCHEMA_JOB&lt;span style=&quot;white-space: pre;&quot;&gt;	&lt;span style=&quot;white-space: pre;&quot;&gt;	&lt;/span&gt;&lt;/span&gt;&lt;span style=&quot;white-space: pre;&quot;&gt;XJobManager&lt;/span&gt;" style="text;html=1;strokeColor=none;fillColor=none;align=left;verticalAlign=top;whiteSpace=wrap;rounded=0;fontSize=20;fontFamily=Architects Daughter;" vertex="1" parent="1">
          <mxGeometry x="231.5" y="3580" width="506" height="163" as="geometry" />
        </mxCell>
        <mxCell id="aoOViALbAzrnRGuM8VXM-167" value="" style="edgeStyle=orthogonalEdgeStyle;rounded=0;sketch=1;hachureGap=4;jiggle=2;curveFitting=1;orthogonalLoop=1;jettySize=auto;html=1;fontFamily=Architects Daughter;fontSource=https%3A%2F%2Ffonts.googleapis.com%2Fcss%3Ffamily%3DArchitects%2BDaughter;fontSize=16;" edge="1" parent="1" source="aoOViALbAzrnRGuM8VXM-165" target="aoOViALbAzrnRGuM8VXM-166">
          <mxGeometry relative="1" as="geometry" />
        </mxCell>
        <mxCell id="aoOViALbAzrnRGuM8VXM-165" value="JobManager" style="whiteSpace=wrap;html=1;fontSize=20;fontFamily=Architects Daughter;sketch=1;hachureGap=4;jiggle=2;curveFitting=1;fontSource=https%3A%2F%2Ffonts.googleapis.com%2Fcss%3Ffamily%3DArchitects%2BDaughter;" vertex="1" parent="1">
          <mxGeometry x="-720" y="4120" width="230" height="60" as="geometry" />
        </mxCell>
        <mxCell id="aoOViALbAzrnRGuM8VXM-169" value="" style="edgeStyle=orthogonalEdgeStyle;rounded=0;sketch=1;hachureGap=4;jiggle=2;curveFitting=1;orthogonalLoop=1;jettySize=auto;html=1;fontFamily=Architects Daughter;fontSource=https%3A%2F%2Ffonts.googleapis.com%2Fcss%3Ffamily%3DArchitects%2BDaughter;fontSize=16;" edge="1" parent="1" source="aoOViALbAzrnRGuM8VXM-166" target="aoOViALbAzrnRGuM8VXM-168">
          <mxGeometry relative="1" as="geometry" />
        </mxCell>
        <mxCell id="aoOViALbAzrnRGuM8VXM-166" value="buildTaskExecutor&lt;br&gt;execute" style="whiteSpace=wrap;html=1;fontSize=20;fontFamily=Architects Daughter;sketch=1;hachureGap=4;jiggle=2;curveFitting=1;fontSource=https%3A%2F%2Ffonts.googleapis.com%2Fcss%3Ffamily%3DArchitects%2BDaughter;" vertex="1" parent="1">
          <mxGeometry x="-720" y="4250" width="230" height="60" as="geometry" />
        </mxCell>
        <mxCell id="aoOViALbAzrnRGuM8VXM-171" value="" style="edgeStyle=orthogonalEdgeStyle;rounded=0;sketch=1;hachureGap=4;jiggle=2;curveFitting=1;orthogonalLoop=1;jettySize=auto;html=1;fontFamily=Architects Daughter;fontSource=https%3A%2F%2Ffonts.googleapis.com%2Fcss%3Ffamily%3DArchitects%2BDaughter;fontSize=16;" edge="1" parent="1" source="aoOViALbAzrnRGuM8VXM-168" target="aoOViALbAzrnRGuM8VXM-170">
          <mxGeometry relative="1" as="geometry" />
        </mxCell>
        <mxCell id="aoOViALbAzrnRGuM8VXM-168" value="executeJob" style="whiteSpace=wrap;html=1;fontSize=20;fontFamily=Architects Daughter;sketch=1;hachureGap=4;jiggle=2;curveFitting=1;fontSource=https%3A%2F%2Ffonts.googleapis.com%2Fcss%3Ffamily%3DArchitects%2BDaughter;" vertex="1" parent="1">
          <mxGeometry x="-410" y="4250" width="230" height="60" as="geometry" />
        </mxCell>
        <mxCell id="aoOViALbAzrnRGuM8VXM-173" value="" style="edgeStyle=orthogonalEdgeStyle;rounded=0;sketch=1;hachureGap=4;jiggle=2;curveFitting=1;orthogonalLoop=1;jettySize=auto;html=1;fontFamily=Architects Daughter;fontSource=https%3A%2F%2Ffonts.googleapis.com%2Fcss%3Ffamily%3DArchitects%2BDaughter;fontSize=16;" edge="1" parent="1" source="aoOViALbAzrnRGuM8VXM-170" target="aoOViALbAzrnRGuM8VXM-172">
          <mxGeometry relative="1" as="geometry" />
        </mxCell>
        <mxCell id="aoOViALbAzrnRGuM8VXM-170" value="buildTasks" style="whiteSpace=wrap;html=1;fontSize=20;fontFamily=Architects Daughter;sketch=1;hachureGap=4;jiggle=2;curveFitting=1;fontSource=https%3A%2F%2Ffonts.googleapis.com%2Fcss%3Ffamily%3DArchitects%2BDaughter;fillColor=#d5e8d4;strokeColor=#82b366;" vertex="1" parent="1">
          <mxGeometry x="-410" y="4360" width="230" height="60" as="geometry" />
        </mxCell>
        <mxCell id="aoOViALbAzrnRGuM8VXM-178" style="edgeStyle=orthogonalEdgeStyle;rounded=0;sketch=1;hachureGap=4;jiggle=2;curveFitting=1;orthogonalLoop=1;jettySize=auto;html=1;entryX=0;entryY=0.5;entryDx=0;entryDy=0;fontFamily=Architects Daughter;fontSource=https%3A%2F%2Ffonts.googleapis.com%2Fcss%3Ffamily%3DArchitects%2BDaughter;fontSize=16;" edge="1" parent="1" source="aoOViALbAzrnRGuM8VXM-172" target="aoOViALbAzrnRGuM8VXM-176">
          <mxGeometry relative="1" as="geometry" />
        </mxCell>
        <mxCell id="aoOViALbAzrnRGuM8VXM-172" value="submitTaskToQueue" style="whiteSpace=wrap;html=1;fontSize=20;fontFamily=Architects Daughter;sketch=1;hachureGap=4;jiggle=2;curveFitting=1;fontSource=https%3A%2F%2Ffonts.googleapis.com%2Fcss%3Ffamily%3DArchitects%2BDaughter;" vertex="1" parent="1">
          <mxGeometry x="-410" y="4455" width="230" height="60" as="geometry" />
        </mxCell>
        <mxCell id="aoOViALbAzrnRGuM8VXM-175" value="" style="shape=cylinder3;whiteSpace=wrap;html=1;boundedLbl=1;backgroundOutline=1;size=15;sketch=1;hachureGap=4;jiggle=2;curveFitting=1;fontFamily=Architects Daughter;fontSource=https%3A%2F%2Ffonts.googleapis.com%2Fcss%3Ffamily%3DArchitects%2BDaughter;fontSize=20;rotation=90;" vertex="1" parent="1">
          <mxGeometry x="-42.5" y="4380" width="65" height="220" as="geometry" />
        </mxCell>
        <mxCell id="aoOViALbAzrnRGuM8VXM-181" style="edgeStyle=orthogonalEdgeStyle;rounded=0;sketch=1;hachureGap=4;jiggle=2;curveFitting=1;orthogonalLoop=1;jettySize=auto;html=1;fontFamily=Architects Daughter;fontSource=https%3A%2F%2Ffonts.googleapis.com%2Fcss%3Ffamily%3DArchitects%2BDaughter;fontSize=16;" edge="1" parent="1" source="aoOViALbAzrnRGuM8VXM-176" target="aoOViALbAzrnRGuM8VXM-179">
          <mxGeometry relative="1" as="geometry" />
        </mxCell>
        <mxCell id="aoOViALbAzrnRGuM8VXM-176" value="Map(&quot;default&quot;, BlockingQueue)" style="text;html=1;strokeColor=none;fillColor=none;align=center;verticalAlign=middle;whiteSpace=wrap;rounded=0;fontSize=20;fontFamily=Architects Daughter;" vertex="1" parent="1">
          <mxGeometry x="-120" y="4469.5" width="205" height="30" as="geometry" />
        </mxCell>
        <mxCell id="aoOViALbAzrnRGuM8VXM-177" style="edgeStyle=orthogonalEdgeStyle;rounded=0;sketch=1;hachureGap=4;jiggle=2;curveFitting=1;orthogonalLoop=1;jettySize=auto;html=1;exitX=0.5;exitY=1;exitDx=0;exitDy=0;fontFamily=Architects Daughter;fontSource=https%3A%2F%2Ffonts.googleapis.com%2Fcss%3Ffamily%3DArchitects%2BDaughter;fontSize=16;" edge="1" parent="1" source="aoOViALbAzrnRGuM8VXM-176" target="aoOViALbAzrnRGuM8VXM-176">
          <mxGeometry relative="1" as="geometry" />
        </mxCell>
        <mxCell id="aoOViALbAzrnRGuM8VXM-183" value="" style="edgeStyle=orthogonalEdgeStyle;rounded=0;sketch=1;hachureGap=4;jiggle=2;curveFitting=1;orthogonalLoop=1;jettySize=auto;html=1;fontFamily=Architects Daughter;fontSource=https%3A%2F%2Ffonts.googleapis.com%2Fcss%3Ffamily%3DArchitects%2BDaughter;fontSize=16;" edge="1" parent="1" source="aoOViALbAzrnRGuM8VXM-179" target="aoOViALbAzrnRGuM8VXM-182">
          <mxGeometry relative="1" as="geometry" />
        </mxCell>
        <mxCell id="aoOViALbAzrnRGuM8VXM-179" value="TaskDispatcher&lt;br&gt;call" style="rounded=0;whiteSpace=wrap;html=1;sketch=1;hachureGap=4;jiggle=2;curveFitting=1;fontFamily=Architects Daughter;fontSource=https%3A%2F%2Ffonts.googleapis.com%2Fcss%3Ffamily%3DArchitects%2BDaughter;fontSize=20;" vertex="1" parent="1">
          <mxGeometry x="190" y="4455" width="162.5" height="60" as="geometry" />
        </mxCell>
        <mxCell id="aoOViALbAzrnRGuM8VXM-180" value="TaskDispatcher&lt;br&gt;1: dispatcherSize" style="rounded=0;whiteSpace=wrap;html=1;sketch=1;hachureGap=4;jiggle=2;curveFitting=1;fontFamily=Architects Daughter;fontSource=https%3A%2F%2Ffonts.googleapis.com%2Fcss%3Ffamily%3DArchitects%2BDaughter;fontSize=20;" vertex="1" parent="1">
          <mxGeometry x="190" y="4320" width="162.5" height="60" as="geometry" />
        </mxCell>
        <mxCell id="aoOViALbAzrnRGuM8VXM-185" value="" style="edgeStyle=orthogonalEdgeStyle;rounded=0;sketch=1;hachureGap=4;jiggle=2;curveFitting=1;orthogonalLoop=1;jettySize=auto;html=1;fontFamily=Architects Daughter;fontSource=https%3A%2F%2Ffonts.googleapis.com%2Fcss%3Ffamily%3DArchitects%2BDaughter;fontSize=16;" edge="1" parent="1" source="aoOViALbAzrnRGuM8VXM-182" target="aoOViALbAzrnRGuM8VXM-184">
          <mxGeometry relative="1" as="geometry" />
        </mxCell>
        <mxCell id="aoOViALbAzrnRGuM8VXM-182" value="TaskScheduler&lt;br&gt;assignTask" style="rounded=0;whiteSpace=wrap;html=1;sketch=1;hachureGap=4;jiggle=2;curveFitting=1;fontFamily=Architects Daughter;fontSource=https%3A%2F%2Ffonts.googleapis.com%2Fcss%3Ffamily%3DArchitects%2BDaughter;fontSize=20;" vertex="1" parent="1">
          <mxGeometry x="190" y="4580" width="162.5" height="60" as="geometry" />
        </mxCell>
        <mxCell id="aoOViALbAzrnRGuM8VXM-187" value="" style="edgeStyle=orthogonalEdgeStyle;rounded=0;sketch=1;hachureGap=4;jiggle=2;curveFitting=1;orthogonalLoop=1;jettySize=auto;html=1;fontFamily=Architects Daughter;fontSource=https%3A%2F%2Ffonts.googleapis.com%2Fcss%3Ffamily%3DArchitects%2BDaughter;fontSize=16;" edge="1" parent="1" source="aoOViALbAzrnRGuM8VXM-184" target="aoOViALbAzrnRGuM8VXM-186">
          <mxGeometry relative="1" as="geometry" />
        </mxCell>
        <mxCell id="aoOViALbAzrnRGuM8VXM-184" value="WorkerRPCServicePro&lt;br&gt;submitTask" style="rounded=0;whiteSpace=wrap;html=1;sketch=1;hachureGap=4;jiggle=2;curveFitting=1;fontFamily=Architects Daughter;fontSource=https%3A%2F%2Ffonts.googleapis.com%2Fcss%3Ffamily%3DArchitects%2BDaughter;fontSize=20;" vertex="1" parent="1">
          <mxGeometry x="432.5" y="4580" width="227.5" height="60" as="geometry" />
        </mxCell>
        <mxCell id="aoOViALbAzrnRGuM8VXM-189" value="" style="edgeStyle=orthogonalEdgeStyle;rounded=0;sketch=1;hachureGap=4;jiggle=2;curveFitting=1;orthogonalLoop=1;jettySize=auto;html=1;fontFamily=Architects Daughter;fontSource=https%3A%2F%2Ffonts.googleapis.com%2Fcss%3Ffamily%3DArchitects%2BDaughter;fontSize=16;" edge="1" parent="1" source="aoOViALbAzrnRGuM8VXM-186" target="aoOViALbAzrnRGuM8VXM-188">
          <mxGeometry relative="1" as="geometry" />
        </mxCell>
        <mxCell id="aoOViALbAzrnRGuM8VXM-186" value="BaseTaskManager&lt;br&gt;submitTask" style="rounded=0;whiteSpace=wrap;html=1;sketch=1;hachureGap=4;jiggle=2;curveFitting=1;fontFamily=Architects Daughter;fontSource=https%3A%2F%2Ffonts.googleapis.com%2Fcss%3Ffamily%3DArchitects%2BDaughter;fontSize=20;" vertex="1" parent="1">
          <mxGeometry x="740" y="4580" width="227.5" height="60" as="geometry" />
        </mxCell>
        <mxCell id="aoOViALbAzrnRGuM8VXM-191" value="" style="edgeStyle=orthogonalEdgeStyle;rounded=0;sketch=1;hachureGap=4;jiggle=2;curveFitting=1;orthogonalLoop=1;jettySize=auto;html=1;fontFamily=Architects Daughter;fontSource=https%3A%2F%2Ffonts.googleapis.com%2Fcss%3Ffamily%3DArchitects%2BDaughter;fontSize=16;" edge="1" parent="1" source="aoOViALbAzrnRGuM8VXM-188" target="aoOViALbAzrnRGuM8VXM-190">
          <mxGeometry relative="1" as="geometry" />
        </mxCell>
        <mxCell id="aoOViALbAzrnRGuM8VXM-188" value="buildTaskTunnel&lt;br&gt;TaskRunner" style="rounded=0;whiteSpace=wrap;html=1;sketch=1;hachureGap=4;jiggle=2;curveFitting=1;fontFamily=Architects Daughter;fontSource=https%3A%2F%2Ffonts.googleapis.com%2Fcss%3Ffamily%3DArchitects%2BDaughter;fontSize=20;fillColor=#d5e8d4;strokeColor=#82b366;" vertex="1" parent="1">
          <mxGeometry x="740" y="4710" width="227.5" height="60" as="geometry" />
        </mxCell>
        <mxCell id="aoOViALbAzrnRGuM8VXM-193" value="" style="edgeStyle=orthogonalEdgeStyle;rounded=0;sketch=1;hachureGap=4;jiggle=2;curveFitting=1;orthogonalLoop=1;jettySize=auto;html=1;fontFamily=Architects Daughter;fontSource=https%3A%2F%2Ffonts.googleapis.com%2Fcss%3Ffamily%3DArchitects%2BDaughter;fontSize=16;" edge="1" parent="1" source="aoOViALbAzrnRGuM8VXM-190" target="aoOViALbAzrnRGuM8VXM-192">
          <mxGeometry relative="1" as="geometry" />
        </mxCell>
        <mxCell id="aoOViALbAzrnRGuM8VXM-190" value="getExecutors&lt;br&gt;ThreadPoolExecutor" style="rounded=0;whiteSpace=wrap;html=1;sketch=1;hachureGap=4;jiggle=2;curveFitting=1;fontFamily=Architects Daughter;fontSource=https%3A%2F%2Ffonts.googleapis.com%2Fcss%3Ffamily%3DArchitects%2BDaughter;fontSize=20;" vertex="1" parent="1">
          <mxGeometry x="740" y="4820" width="227.5" height="60" as="geometry" />
        </mxCell>
        <mxCell id="aoOViALbAzrnRGuM8VXM-192" value="submitRunner" style="rounded=0;whiteSpace=wrap;html=1;sketch=1;hachureGap=4;jiggle=2;curveFitting=1;fontFamily=Architects Daughter;fontSource=https%3A%2F%2Ffonts.googleapis.com%2Fcss%3Ffamily%3DArchitects%2BDaughter;fontSize=20;" vertex="1" parent="1">
          <mxGeometry x="740" y="4930" width="227.5" height="60" as="geometry" />
        </mxCell>
        <mxCell id="aoOViALbAzrnRGuM8VXM-194" value="PHX_SCHEMA_JOB&lt;span style=&quot;white-space: pre;&quot;&gt;	&lt;span style=&quot;white-space: pre;&quot;&gt;	&lt;/span&gt;&lt;/span&gt;&lt;span style=&quot;white-space: pre;&quot;&gt;XJobManager&lt;span style=&quot;white-space: pre;&quot;&gt;	&lt;span style=&quot;white-space: pre;&quot;&gt;	SchemaCreator&lt;/span&gt;&lt;/span&gt;&lt;/span&gt;" style="text;html=1;strokeColor=none;fillColor=none;align=left;verticalAlign=top;whiteSpace=wrap;rounded=0;fontSize=20;fontFamily=Architects Daughter;" vertex="1" parent="1">
          <mxGeometry x="-715" y="4718.5" width="650" height="43" as="geometry" />
        </mxCell>
        <mxCell id="aoOViALbAzrnRGuM8VXM-197" value="" style="edgeStyle=orthogonalEdgeStyle;rounded=0;sketch=1;hachureGap=4;jiggle=2;curveFitting=1;orthogonalLoop=1;jettySize=auto;html=1;fontFamily=Architects Daughter;fontSource=https%3A%2F%2Ffonts.googleapis.com%2Fcss%3Ffamily%3DArchitects%2BDaughter;fontSize=16;" edge="1" parent="1" source="aoOViALbAzrnRGuM8VXM-195" target="aoOViALbAzrnRGuM8VXM-196">
          <mxGeometry relative="1" as="geometry" />
        </mxCell>
        <mxCell id="aoOViALbAzrnRGuM8VXM-195" value="buildTasks" style="whiteSpace=wrap;html=1;fontSize=20;fontFamily=Architects Daughter;sketch=1;hachureGap=4;jiggle=2;curveFitting=1;fontSource=https%3A%2F%2Ffonts.googleapis.com%2Fcss%3Ffamily%3DArchitects%2BDaughter;" vertex="1" parent="1">
          <mxGeometry x="-465" y="4820" width="230" height="60" as="geometry" />
        </mxCell>
        <mxCell id="aoOViALbAzrnRGuM8VXM-199" value="" style="edgeStyle=orthogonalEdgeStyle;rounded=0;sketch=1;hachureGap=4;jiggle=2;curveFitting=1;orthogonalLoop=1;jettySize=auto;html=1;fontFamily=Architects Daughter;fontSource=https%3A%2F%2Ffonts.googleapis.com%2Fcss%3Ffamily%3DArchitects%2BDaughter;fontSize=16;" edge="1" parent="1" source="aoOViALbAzrnRGuM8VXM-196" target="aoOViALbAzrnRGuM8VXM-198">
          <mxGeometry relative="1" as="geometry" />
        </mxCell>
        <mxCell id="aoOViALbAzrnRGuM8VXM-196" value="TableTaskBuilder&lt;br&gt;buildTasks" style="whiteSpace=wrap;html=1;fontSize=20;fontFamily=Architects Daughter;sketch=1;hachureGap=4;jiggle=2;curveFitting=1;fontSource=https%3A%2F%2Ffonts.googleapis.com%2Fcss%3Ffamily%3DArchitects%2BDaughter;" vertex="1" parent="1">
          <mxGeometry x="-155" y="4820" width="230" height="60" as="geometry" />
        </mxCell>
        <mxCell id="aoOViALbAzrnRGuM8VXM-198" value="Tasks&lt;br&gt;table, til&lt;br&gt;tunnel type:&amp;nbsp;PHX_SCHEMA_JOB" style="whiteSpace=wrap;html=1;fontSize=20;fontFamily=Architects Daughter;sketch=1;hachureGap=4;jiggle=2;curveFitting=1;fontSource=https%3A%2F%2Ffonts.googleapis.com%2Fcss%3Ffamily%3DArchitects%2BDaughter;" vertex="1" parent="1">
          <mxGeometry x="-175" y="4950" width="270" height="120" as="geometry" />
        </mxCell>
        <mxCell id="aoOViALbAzrnRGuM8VXM-200" value="TunnelFactory&lt;br&gt;taskRunner, SchemaCreator" style="whiteSpace=wrap;html=1;fontSize=20;fontFamily=Architects Daughter;sketch=1;hachureGap=4;jiggle=2;curveFitting=1;fontSource=https%3A%2F%2Ffonts.googleapis.com%2Fcss%3Ffamily%3DArchitects%2BDaughter;" vertex="1" parent="1">
          <mxGeometry x="164" y="4810" width="250" height="70" as="geometry" />
        </mxCell>
        <mxCell id="aoOViALbAzrnRGuM8VXM-201" value="submit_incr&lt;br&gt;buildIncrJobs&lt;br&gt;&lt;br&gt;job&lt;br&gt;tasks, null&lt;br&gt;params:&lt;br&gt;tables, tbs[tableConf], tableConf{sourcePhoenixTable, table}&lt;br style=&quot;border-color: var(--border-color);&quot;&gt;reader.name, WALReader&lt;br style=&quot;border-color: var(--border-color);&quot;&gt;writer.name, APIWriter&lt;br&gt;&lt;br&gt;tunnel type&lt;br&gt;HB_TO_X_INCR_JOB&lt;span style=&quot;&quot;&gt;	&lt;span style=&quot;white-space: pre;&quot;&gt;	&lt;/span&gt;&lt;span style=&quot;&quot;&gt;	&lt;/span&gt;&lt;/span&gt;&lt;span style=&quot;&quot;&gt;HBIncrExportManager&lt;span style=&quot;&quot;&gt;	&lt;span style=&quot;white-space: pre;&quot;&gt;	&lt;/span&gt;&lt;span style=&quot;&quot;&gt;	HBIncrExportTaskBuilder&lt;span style=&quot;white-space: pre;&quot;&gt;	&lt;span style=&quot;white-space: pre;&quot;&gt;	HBIncrAsyncTunnel&lt;/span&gt;&lt;/span&gt;&lt;/span&gt;&lt;/span&gt;&lt;/span&gt;" style="text;html=1;strokeColor=none;fillColor=none;align=left;verticalAlign=top;whiteSpace=wrap;rounded=0;fontSize=20;fontFamily=Architects Daughter;" vertex="1" parent="1">
          <mxGeometry x="-755" y="5270" width="845" height="43" as="geometry" />
        </mxCell>
        <mxCell id="aoOViALbAzrnRGuM8VXM-202" value="PhoenixMigrationProcedure&lt;br&gt;buildIncrJobs" style="rounded=0;whiteSpace=wrap;html=1;sketch=1;hachureGap=4;jiggle=2;curveFitting=1;fontFamily=Architects Daughter;fontSource=https%3A%2F%2Ffonts.googleapis.com%2Fcss%3Ffamily%3DArchitects%2BDaughter;fontSize=20;" vertex="1" parent="1">
          <mxGeometry x="-755" y="5650" width="261" height="60" as="geometry" />
        </mxCell>
        <mxCell id="aoOViALbAzrnRGuM8VXM-205" value="" style="edgeStyle=orthogonalEdgeStyle;rounded=0;sketch=1;hachureGap=4;jiggle=2;curveFitting=1;orthogonalLoop=1;jettySize=auto;html=1;fontFamily=Architects Daughter;fontSource=https%3A%2F%2Ffonts.googleapis.com%2Fcss%3Ffamily%3DArchitects%2BDaughter;fontSize=16;" edge="1" parent="1" source="aoOViALbAzrnRGuM8VXM-203" target="aoOViALbAzrnRGuM8VXM-204">
          <mxGeometry relative="1" as="geometry" />
        </mxCell>
        <mxCell id="aoOViALbAzrnRGuM8VXM-203" value="HBIncrExportTaskBuilder&lt;br&gt;buildTasks" style="rounded=0;whiteSpace=wrap;html=1;sketch=1;hachureGap=4;jiggle=2;curveFitting=1;fontFamily=Architects Daughter;fontSource=https%3A%2F%2Ffonts.googleapis.com%2Fcss%3Ffamily%3DArchitects%2BDaughter;fontSize=20;" vertex="1" parent="1">
          <mxGeometry x="-415" y="5650" width="261" height="60" as="geometry" />
        </mxCell>
        <mxCell id="aoOViALbAzrnRGuM8VXM-210" value="" style="edgeStyle=orthogonalEdgeStyle;rounded=0;sketch=1;hachureGap=4;jiggle=2;curveFitting=1;orthogonalLoop=1;jettySize=auto;html=1;fontFamily=Architects Daughter;fontSource=https%3A%2F%2Ffonts.googleapis.com%2Fcss%3Ffamily%3DArchitects%2BDaughter;fontSize=16;" edge="1" parent="1" source="aoOViALbAzrnRGuM8VXM-204" target="aoOViALbAzrnRGuM8VXM-206">
          <mxGeometry relative="1" as="geometry" />
        </mxCell>
        <mxCell id="aoOViALbAzrnRGuM8VXM-204" value="buildHBIncrTasks" style="rounded=0;whiteSpace=wrap;html=1;sketch=1;hachureGap=4;jiggle=2;curveFitting=1;fontFamily=Architects Daughter;fontSource=https%3A%2F%2Ffonts.googleapis.com%2Fcss%3Ffamily%3DArchitects%2BDaughter;fontSize=20;" vertex="1" parent="1">
          <mxGeometry x="-416" y="5760" width="261" height="60" as="geometry" />
        </mxCell>
        <mxCell id="aoOViALbAzrnRGuM8VXM-209" value="" style="edgeStyle=orthogonalEdgeStyle;rounded=0;sketch=1;hachureGap=4;jiggle=2;curveFitting=1;orthogonalLoop=1;jettySize=auto;html=1;fontFamily=Architects Daughter;fontSource=https%3A%2F%2Ffonts.googleapis.com%2Fcss%3Ffamily%3DArchitects%2BDaughter;fontSize=16;" edge="1" parent="1" source="aoOViALbAzrnRGuM8VXM-206" target="aoOViALbAzrnRGuM8VXM-208">
          <mxGeometry relative="1" as="geometry" />
        </mxCell>
        <mxCell id="aoOViALbAzrnRGuM8VXM-206" value="getLogsFromFileSystem&lt;br&gt;startTs,endTs" style="rounded=0;whiteSpace=wrap;html=1;sketch=1;hachureGap=4;jiggle=2;curveFitting=1;fontFamily=Architects Daughter;fontSource=https%3A%2F%2Ffonts.googleapis.com%2Fcss%3Ffamily%3DArchitects%2BDaughter;fontSize=20;" vertex="1" parent="1">
          <mxGeometry x="-416" y="5870" width="261" height="60" as="geometry" />
        </mxCell>
        <mxCell id="aoOViALbAzrnRGuM8VXM-208" value="listHbaseLogs(walDirs)" style="rounded=0;whiteSpace=wrap;html=1;sketch=1;hachureGap=4;jiggle=2;curveFitting=1;fontFamily=Architects Daughter;fontSource=https%3A%2F%2Ffonts.googleapis.com%2Fcss%3Ffamily%3DArchitects%2BDaughter;fontSize=20;" vertex="1" parent="1">
          <mxGeometry x="-416" y="5980" width="261" height="60" as="geometry" />
        </mxCell>
        <mxCell id="aoOViALbAzrnRGuM8VXM-211" value="Task&lt;br&gt;logFile,&lt;br&gt;logCreateTS,earlistShipTS&lt;br&gt;logServer" style="text;html=1;strokeColor=none;fillColor=none;align=left;verticalAlign=top;whiteSpace=wrap;rounded=0;fontSize=20;fontFamily=Architects Daughter;" vertex="1" parent="1">
          <mxGeometry x="-135" y="5980" width="245" height="30" as="geometry" />
        </mxCell>
        <mxCell id="aoOViALbAzrnRGuM8VXM-212" value="HBIncrAysncTunnel" style="rounded=0;whiteSpace=wrap;html=1;sketch=1;hachureGap=4;jiggle=2;curveFitting=1;fontFamily=Architects Daughter;fontSource=https%3A%2F%2Ffonts.googleapis.com%2Fcss%3Ffamily%3DArchitects%2BDaughter;fontSize=20;" vertex="1" parent="1">
          <mxGeometry x="35" y="5640" width="261" height="60" as="geometry" />
        </mxCell>
        <mxCell id="aoOViALbAzrnRGuM8VXM-213" value="WALReader" style="rounded=0;whiteSpace=wrap;html=1;sketch=1;hachureGap=4;jiggle=2;curveFitting=1;fontFamily=Architects Daughter;fontSource=https%3A%2F%2Ffonts.googleapis.com%2Fcss%3Ffamily%3DArchitects%2BDaughter;fontSize=20;" vertex="1" parent="1">
          <mxGeometry x="35" y="5760" width="261" height="60" as="geometry" />
        </mxCell>
        <mxCell id="aoOViALbAzrnRGuM8VXM-214" value="APIWriter" style="rounded=0;whiteSpace=wrap;html=1;sketch=1;hachureGap=4;jiggle=2;curveFitting=1;fontFamily=Architects Daughter;fontSource=https%3A%2F%2Ffonts.googleapis.com%2Fcss%3Ffamily%3DArchitects%2BDaughter;fontSize=20;" vertex="1" parent="1">
          <mxGeometry x="35" y="5870" width="261" height="60" as="geometry" />
        </mxCell>
        <mxCell id="aoOViALbAzrnRGuM8VXM-215" value="AsyncTaskTunnelV3" style="rounded=0;whiteSpace=wrap;html=1;sketch=1;hachureGap=4;jiggle=2;curveFitting=1;fontFamily=Architects Daughter;fontSource=https%3A%2F%2Ffonts.googleapis.com%2Fcss%3Ffamily%3DArchitects%2BDaughter;fontSize=20;" vertex="1" parent="1">
          <mxGeometry x="1181" y="4701.5" width="229" height="60" as="geometry" />
        </mxCell>
        <mxCell id="aoOViALbAzrnRGuM8VXM-216" value="Consumers" style="rounded=0;whiteSpace=wrap;html=1;sketch=1;hachureGap=4;jiggle=2;curveFitting=1;fontFamily=Architects Daughter;fontSource=https%3A%2F%2Ffonts.googleapis.com%2Fcss%3Ffamily%3DArchitects%2BDaughter;fontSize=20;" vertex="1" parent="1">
          <mxGeometry x="1181" y="4830" width="229" height="60" as="geometry" />
        </mxCell>
        <mxCell id="aoOViALbAzrnRGuM8VXM-217" value="&lt;h1&gt;error case&lt;/h1&gt;&lt;p&gt;work节点运行的task 异常&lt;/p&gt;" style="text;html=1;strokeColor=none;fillColor=none;spacing=5;spacingTop=-20;whiteSpace=wrap;overflow=hidden;rounded=0;fontSize=20;fontFamily=Architects Daughter;" vertex="1" parent="1">
          <mxGeometry x="1160" y="411" width="300" height="119" as="geometry" />
        </mxCell>
      </root>
    </mxGraphModel>
  </diagram>
</mxfile>
